<!DOCTYPE svg PUBLIC "-//W3C//DTD SVG 20010904//EN" "http://www.w3.org/TR/2001/REC-SVG-20010904/DTD/svg10.dtd">
<svg version="1.0" xmlns="http://www.w3.org/2000/svg" width="1245px" height="440px" viewBox="0 0 12000 4240" preserveAspectRatio="xMidYMid meet">
<g id="layer101" fill="#992939" stroke="none">
<path d="M0 2120 l0 -2120 6000 0 6000 0 0 2120 0 2120 -6000 0 -6000 0 0 -2120z"/>
</g>
<g id="layer102" fill="#b22335" stroke="none">
<path d="M0 2120 l0 -2120 6000 0 6000 0 0 2120 0 2120 -6000 0 -6000 0 0 -2120z m3587 1023 c-4 -3 -10 -3 -14 0 -3 4 0 7 7 7 7 0 10 -3 7 -7z m160 1 c-3 -3 -12 -4 -19 -1 -8 3 -5 6 6 6 11 1 17 -2 13 -5z m80 -31 c-4 -3 -10 -3 -14 0 -3 4 0 7 7 7 7 0 10 -3 7 -7z m140 -50 c-4 -3 -7 0 -7 7 0 7 3 10 7 7 3 -4 3 -10 0 -14z m-1096 -10 c13 -17 13 -17 -6 -3 -11 8 -22 16 -24 17 -2 2 0 3 6 3 6 0 17 -8 24 -17z m528 14 c-2 -1 -13 -9 -24 -17 -19 -14 -19 -14 -6 3 7 9 18 17 24 17 6 0 8 -1 6 -3z m548 -54 c-4 -3 -10 -3 -14 0 -3 4 0 7 7 7 7 0 10 -3 7 -7z m-1837 -7 c0 -3 -5 -8 -12 -12 -7 -4 -8 -3 -4 4 7 12 16 16 16 8z m1210 -10 c0 -3 -5 -8 -12 -12 -7 -4 -8 -3 -4 4 7 12 16 16 16 8z m2830 -5 c0 -6 -4 -13 -10 -16 -5 -3 -10 1 -10 9 0 9 5 16 10 16 6 0 10 -4 10 -9z m-3205 -11 c3 -5 4 -10 1 -10 -3 0 -8 5 -11 10 -3 6 -4 10 -1 10 3 0 8 -4 11 -10z m-855 -4 c0 -3 -5 -8 -12 -12 -7 -4 -8 -3 -4 4 7 12 16 16 16 8z m-40 -60 c0 -3 -5 -8 -12 -12 -7 -4 -8 -3 -4 4 7 12 16 16 16 8z m3607 -33 c-4 -3 -7 0 -7 7 0 7 3 10 7 7 3 -4 3 -10 0 -14z m-3650 -50 c-4 -3 -7 0 -7 7 0 7 3 10 7 7 3 -4 3 -10 0 -14z m1705 -45 c-8 -8 -9 -4 -5 13 4 13 8 18 11 10 2 -7 -1 -18 -6 -23z m1925 10 c-3 -8 -6 -5 -6 6 -1 11 2 17 5 13 3 -3 4 -12 1 -19z m-3130 5 c-4 -3 -10 -3 -14 0 -3 4 0 7 7 7 7 0 10 -3 7 -7z m44 -10 c13 -15 12 -15 -8 -4 -24 12 -29 21 -14 21 5 0 15 -7 22 -17z m1234 -3 c10 -11 16 -20 13 -20 -3 0 -13 9 -23 20 -10 11 -16 20 -13 20 3 0 13 -9 23 -20z m-1798 -22 c-3 -7 -5 -2 -5 12 0 14 2 19 5 13 2 -7 2 -19 0 -25z m490 15 c-4 -3 -7 0 -7 7 0 7 3 10 7 7 3 -4 3 -10 0 -14z m3150 -20 c-4 -3 -7 0 -7 7 0 7 3 10 7 7 3 -4 3 -10 0 -14z m-3160 -40 c-3 -10 -5 -2 -5 17 0 19 2 27 5 18 2 -10 2 -26 0 -35z m104 10 c-9 -16 -10 -14 -11 12 0 21 3 26 11 18 8 -8 8 -16 0 -30z m479 7 c0 -5 -2 -10 -4 -10 -3 0 -8 5 -11 10 -3 6 -1 10 4 10 6 0 11 -4 11 -10z m2567 -7 c-4 -3 -7 0 -7 7 0 7 3 10 7 7 3 -4 3 -10 0 -14z m-2397 3 c0 -3 -5 -8 -12 -12 -7 -4 -8 -3 -4 4 7 12 16 16 16 8z m469 -33 c0 -25 -1 -25 -8 -8 -5 11 -7 23 -4 28 8 14 13 7 12 -20z m1821 -8 c0 -8 -4 -17 -10 -20 -6 -4 -10 5 -10 20 0 15 4 24 10 20 6 -3 10 -12 10 -20z m-3050 -536 c0 -351 -3 -528 -10 -524 -11 7 -15 1037 -3 1048 3 4 8 7 10 7 2 0 3 -239 3 -531z m117 514 c-4 -3 -7 0 -7 7 0 7 3 10 7 7 3 -4 3 -10 0 -14z m3020 -15 c-3 -8 -6 -5 -6 6 -1 11 2 17 5 13 3 -3 4 -12 1 -19z m-16 -49 c-5 -13 -10 -19 -10 -12 -1 15 10 45 15 40 3 -2 0 -15 -5 -28z m-2521 -10 c0 -6 -4 -7 -10 -4 -5 3 -10 11 -10 16 0 6 5 7 10 4 6 -3 10 -11 10 -16z m2507 -46 c-4 -3 -7 0 -7 7 0 7 3 10 7 7 3 -4 3 -10 0 -14z m-33 -107 c-3 -15 -8 -25 -11 -23 -2 3 -1 17 3 31 3 15 8 25 11 23 2 -3 1 -17 -3 -31z m-21 -73 c-3 -7 -9 -10 -14 -7 -14 8 -11 21 5 21 8 0 12 -6 9 -14z m194 -500 c-4 -3 -7 0 -7 7 0 7 3 10 7 7 3 -4 3 -10 0 -14z m-10 -30 c-4 -3 -7 0 -7 7 0 7 3 10 7 7 3 -4 3 -10 0 -14z m40 0 c-4 -3 -7 0 -7 7 0 7 3 10 7 7 3 -4 3 -10 0 -14z m-50 -30 c-4 -3 -7 0 -7 7 0 7 3 10 7 7 3 -4 3 -10 0 -14z m-10 -30 c-4 -3 -7 0 -7 7 0 7 3 10 7 7 3 -4 3 -10 0 -14z m73 -4 c0 -6 -4 -7 -10 -4 -5 3 -10 11 -10 16 0 6 5 7 10 4 6 -3 10 -11 10 -16z m-2540 -16 c0 -20 -3 -24 -11 -16 -7 7 -9 19 -6 27 10 24 17 19 17 -11z m-150 -37 c0 -3 -5 -8 -12 -12 -7 -4 -8 -3 -4 4 7 12 16 16 16 8z m2597 -13 c-4 -3 -7 0 -7 7 0 7 3 10 7 7 3 -4 3 -10 0 -14z m-10 -30 c-4 -3 -7 0 -7 7 0 7 3 10 7 7 3 -4 3 -10 0 -14z m93 -257 c-7 -7 -10 24 -10 100 0 144 14 158 18 18 2 -65 -1 -111 -8 -118z m-2050 183 c0 -11 -4 -17 -10 -14 -5 3 -10 13 -10 21 0 8 5 14 10 14 6 0 10 -9 10 -21z m-1218 -38 c2 -17 1 -28 -4 -25 -8 5 -12 54 -4 54 2 0 6 -13 8 -29z m101 4 c4 -8 2 -17 -3 -20 -6 -4 -10 3 -10 14 0 25 6 27 13 6z m477 5 c0 -5 -5 -10 -11 -10 -5 0 -7 5 -4 10 3 6 8 10 11 10 2 0 4 -4 4 -10z m2561 -23 c-10 -9 -11 -8 -5 6 3 10 9 15 12 12 3 -3 0 -11 -7 -18z m-3051 -21 c0 -3 -5 -8 -12 -12 -7 -4 -8 -3 -4 4 7 12 16 16 16 8z m1155 -6 c3 -5 4 -10 1 -10 -3 0 -8 5 -11 10 -3 6 -4 10 -1 10 3 0 8 -4 11 -10z m542 -47 c-4 -3 -7 0 -7 7 0 7 3 10 7 7 3 -4 3 -10 0 -14z m-2237 -28 c0 -5 -5 -3 -10 5 -5 8 -10 20 -10 25 0 6 5 3 10 -5 5 -8 10 -19 10 -25z m3557 -12 c-4 -3 -7 0 -7 7 0 7 3 10 7 7 3 -4 3 -10 0 -14z m-1367 -57 c0 -3 -5 -8 -12 -12 -7 -4 -8 -3 -4 4 7 12 16 16 16 8z m-2089 -73 l34 -37 -37 30 c-20 16 -37 32 -37 37 -2 12 4 8 40 -30z m1247 -13 c7 0 12 -4 12 -10 0 -19 -16 -10 -51 27 -29 33 -30 34 -3 10 16 -15 35 -27 42 -27z m-428 36 c0 -2 -8 -10 -17 -17 -16 -13 -17 -12 -4 4 13 16 21 21 21 13z m3210 -17 c0 -11 -4 -17 -10 -14 -5 3 -10 13 -10 21 0 8 5 14 10 14 6 0 10 -9 10 -21z m-400 -15 c0 -8 -4 -12 -10 -9 -5 3 -10 13 -10 21 0 8 5 12 10 9 6 -3 10 -13 10 -21z m-1630 -8 c0 -2 -8 -10 -17 -17 -16 -13 -17 -12 -4 4 13 16 21 21 21 13z m-1240 -10 c0 -2 -8 -10 -17 -17 -16 -13 -17 -12 -4 4 13 16 21 21 21 13z m3270 -28 c-1 -28 -2 -30 -11 -15 -6 10 -8 25 -5 33 9 24 16 16 16 -18z m-3907 -28 c6 0 8 -3 5 -6 -8 -7 -61 21 -78 42 -8 9 3 5 24 -10 21 -14 43 -26 49 -26z m1154 33 c-4 -3 -10 -3 -14 0 -3 4 0 7 7 7 7 0 10 -3 7 -7z m678 -3 c-7 -11 -79 -50 -92 -50 -7 0 86 58 95 59 2 1 0 -4 -3 -9z m-1235 -4 c0 -3 -5 -8 -12 -12 -7 -4 -8 -3 -4 4 7 12 16 16 16 8z m3287 -53 c-4 -3 -10 -3 -14 0 -3 4 0 7 7 7 7 0 10 -3 7 -7z m-2190 -10 c-4 -3 -10 -3 -14 0 -3 4 0 7 7 7 7 0 10 -3 7 -7z m-1260 -10 c-4 -3 -10 -3 -14 0 -3 4 0 7 7 7 7 0 10 -3 7 -7z m1230 1 c-3 -3 -12 -4 -19 -1 -8 3 -5 6 6 6 11 1 17 -2 13 -5z"/>
</g>
<g id="layer103" fill="#9b3445" stroke="none">
<path d="M7320 4232 c-8 -4 -15 -16 -14 -27 1 -11 2 -962 3 -2112 l1 -2093 2345 0 2345 0 0 2120 0 2120 -2332 -1 c-1283 0 -2340 -3 -2348 -7z m3145 -1182 c3 -5 4 -10 1 -10 -3 0 -8 5 -11 10 -3 6 -4 10 -1 10 3 0 8 -4 11 -10z m-1440 -1200 c3 -5 4 -10 1 -10 -3 0 -8 5 -11 10 -3 6 -4 10 -1 10 3 0 8 -4 11 -10z m210 -50 c-6 -9 -9 -9 -16 1 -10 17 0 34 13 21 6 -6 7 -16 3 -22z m242 13 c-4 -3 -10 -3 -14 0 -3 4 0 7 7 7 7 0 10 -3 7 -7z m773 3 c0 -3 -5 -8 -12 -12 -7 -4 -8 -3 -4 4 7 12 16 16 16 8z m-110 -650 c0 -3 -5 -8 -12 -12 -7 -4 -8 -3 -4 4 7 12 16 16 16 8z m-543 -183 c-4 -3 -10 -3 -14 0 -3 4 0 7 7 7 7 0 10 -3 7 -7z m40 -10 c-4 -3 -10 -3 -14 0 -3 4 0 7 7 7 7 0 10 -3 7 -7z"/>
<path d="M2427 3144 c-3 -3 -25 -7 -49 -9 -24 -1 -79 -17 -123 -36 -62 -25 -93 -45 -135 -89 -75 -76 -132 -190 -135 -271 -1 -33 -4 -61 -6 -63 -7 -7 -2 -1016 4 -1023 4 -4 4 -21 1 -39 -11 -61 62 -236 119 -283 9 -7 14 -18 10 -25 -3 -6 -3 -8 2 -4 4 4 25 -6 46 -23 59 -47 166 -91 226 -94 29 -1 56 -5 60 -8 10 -11 121 -8 128 3 4 6 21 8 38 5 65 -12 200 46 289 124 69 61 150 215 134 256 -3 8 -1 17 5 21 7 4 8 29 4 69 -5 42 -3 65 4 69 16 10 16 862 0 872 -7 4 -9 27 -4 69 4 38 2 65 -3 69 -6 3 -8 14 -5 25 6 23 -20 100 -53 158 -33 56 -101 123 -156 156 -60 35 -167 69 -194 63 -13 -4 -26 -2 -29 4 -7 11 -167 14 -178 4z m132 -362 c19 -28 20 -43 20 -621 0 -647 1 -638 -56 -638 -39 0 -63 26 -63 69 0 20 -4 40 -10 43 -13 8 -14 1041 -1 1049 4 3 11 29 13 57 3 28 12 55 19 60 27 17 58 9 78 -19z"/>
<path d="M3545 3135 c-70 -19 -102 -35 -160 -77 -86 -63 -164 -194 -171 -286 -2 -26 -4 -48 -4 -49 -5 -13 0 -1085 4 -1092 4 -6 4 -21 0 -35 -3 -14 -3 -30 1 -37 4 -6 8 -28 9 -48 1 -20 11 -53 20 -74 23 -47 103 -137 122 -137 8 0 14 -6 14 -14 0 -16 102 -72 171 -92 28 -8 63 -12 79 -9 16 3 31 2 35 -4 8 -14 122 -14 130 0 4 6 19 7 36 4 16 -4 54 1 86 10 167 48 327 194 337 309 2 18 7 39 12 47 5 8 9 46 9 86 0 39 3 75 8 79 4 4 7 51 7 105 l0 98 -242 -2 -243 -2 -5 -181 c-5 -198 -10 -214 -61 -214 -29 0 -35 7 -54 65 -6 19 -8 1131 -2 1143 2 4 9 25 16 48 12 37 16 40 42 36 37 -5 69 -45 69 -86 0 -18 3 -36 8 -42 4 -5 6 -73 4 -151 l-3 -142 -39 -3 -39 -3 -4 -145 -4 -145 278 -3 279 -2 -2 507 -3 507 -153 1 -152 0 -16 -47 c-8 -27 -19 -48 -24 -48 -4 0 -19 15 -34 34 -67 88 -226 128 -361 91z"/>
<path d="M1164 3095 c-2 -5 -3 -431 -2 -945 l3 -935 238 -3 238 -2 -1 227 c0 126 -1 463 0 751 l0 522 133 0 c90 0 137 4 145 12 8 8 12 67 12 198 l0 185 -381 0 c-245 0 -383 -4 -385 -10z"/>
<path d="M5094 3101 c-6 -7 -4 -1844 2 -1868 6 -23 8 -23 199 -23 142 0 195 3 202 13 14 17 104 299 120 377 3 14 27 96 54 183 27 87 49 161 49 165 0 3 7 -4 16 -16 11 -15 13 -27 6 -35 -11 -14 -10 -92 1 -103 11 -11 9 -362 -3 -369 -14 -9 -13 -88 2 -103 9 -9 8 -17 -2 -37 -10 -19 -11 -30 -2 -50 l12 -25 192 0 193 0 0 947 0 948 -208 0 -207 0 -9 -30 c-10 -31 -42 -149 -81 -295 -31 -115 -120 -413 -125 -419 -14 -13 -16 62 -13 386 l3 359 -198 -1 c-109 0 -200 -2 -203 -4z"/>
</g>
<g id="layer104" fill="#d9211d" stroke="none">
<path d="M7320 4232 c-8 -4 -15 -16 -14 -27 1 -11 2 -962 3 -2112 l1 -2093 2345 0 2345 0 0 2120 0 2120 -2332 -1 c-1283 0 -2340 -3 -2348 -7z m3145 -1182 c3 -5 4 -10 1 -10 -3 0 -8 5 -11 10 -3 6 -4 10 -1 10 3 0 8 -4 11 -10z m-1440 -1200 c3 -5 4 -10 1 -10 -3 0 -8 5 -11 10 -3 6 -4 10 -1 10 3 0 8 -4 11 -10z m52 -27 c-4 -3 -10 -3 -14 0 -3 4 0 7 7 7 7 0 10 -3 7 -7z m158 -23 c-6 -9 -9 -9 -16 1 -10 17 0 34 13 21 6 -6 7 -16 3 -22z m242 13 c-4 -3 -10 -3 -14 0 -3 4 0 7 7 7 7 0 10 -3 7 -7z m773 3 c0 -3 -5 -8 -12 -12 -7 -4 -8 -3 -4 4 7 12 16 16 16 8z m-110 -650 c0 -3 -5 -8 -12 -12 -7 -4 -8 -3 -4 4 7 12 16 16 16 8z m-543 -183 c-4 -3 -10 -3 -14 0 -3 4 0 7 7 7 7 0 10 -3 7 -7z m40 -10 c-4 -3 -10 -3 -14 0 -3 4 0 7 7 7 7 0 10 -3 7 -7z"/>
</g>
<g id="layer105" fill="#cf2535" stroke="none">
<path d="M7320 4232 c-8 -4 -15 -16 -14 -27 1 -11 2 -962 3 -2112 l1 -2093 2345 0 2345 0 0 2120 0 2120 -2332 -1 c-1283 0 -2340 -3 -2348 -7z m3145 -1182 c3 -5 4 -10 1 -10 -3 0 -8 5 -11 10 -3 6 -4 10 -1 10 3 0 8 -4 11 -10z m-708 -367 c-4 -3 -10 -3 -14 0 -3 4 0 7 7 7 7 0 10 -3 7 -7z m26 -43 c-7 -28 -13 -25 -13 6 0 14 4 23 9 20 5 -3 7 -15 4 -26z m44 -147 c-4 -3 -10 -3 -14 0 -3 4 0 7 7 7 7 0 10 -3 7 -7z m-802 -643 c3 -5 4 -10 1 -10 -3 0 -8 5 -11 10 -3 6 -4 10 -1 10 3 0 8 -4 11 -10z m52 -27 c-4 -3 -10 -3 -14 0 -3 4 0 7 7 7 7 0 10 -3 7 -7z m158 -23 c-6 -9 -9 -9 -16 1 -10 17 0 34 13 21 6 -6 7 -16 3 -22z m242 13 c-4 -3 -10 -3 -14 0 -3 4 0 7 7 7 7 0 10 -3 7 -7z m773 3 c0 -3 -5 -8 -12 -12 -7 -4 -8 -3 -4 4 7 12 16 16 16 8z m-110 -650 c0 -3 -5 -8 -12 -12 -7 -4 -8 -3 -4 4 7 12 16 16 16 8z m-653 -143 c-4 -3 -10 -3 -14 0 -3 4 0 7 7 7 7 0 10 -3 7 -7z m110 -40 c-4 -3 -10 -3 -14 0 -3 4 0 7 7 7 7 0 10 -3 7 -7z m40 -10 c-4 -3 -10 -3 -14 0 -3 4 0 7 7 7 7 0 10 -3 7 -7z"/>
<path d="M1164 3095 c-2 -5 -3 -431 -2 -945 l3 -935 238 -3 238 -2 -1 227 c0 126 -1 463 0 751 l0 522 134 0 c95 0 137 4 144 13 6 7 11 86 12 197 l1 185 -382 0 c-245 0 -383 -4 -385 -10z"/>
<path d="M5520 2660 c0 -7 3 -10 7 -7 3 4 3 10 0 14 -4 3 -7 0 -7 -7z"/>
<path d="M3201 1514 c0 -11 3 -14 6 -6 3 7 2 16 -1 19 -3 4 -6 -2 -5 -13z"/>
</g>
<g id="layer106" fill="#ef1c1d" stroke="none">
<path d="M9625 4230 c-2302 -5 -2310 -5 -2309 -25 1 -11 2 -962 3 -2112 l1 -2093 2340 0 2340 0 0 2118 0 2117 -32 0 c-18 0 -1072 -2 -2343 -5z m-452 -1127 c-7 -2 -21 -2 -30 0 -10 3 -4 5 12 5 17 0 24 -2 18 -5z m-98 -13 c-28 -12 -37 -12 -30 0 3 6 16 10 28 9 21 0 21 -1 2 -9z m1335 0 c11 -7 8 -8 -13 -6 -15 1 -30 6 -34 9 -10 11 30 8 47 -3z m-1401 -37 c-50 -58 -49 -40 -49 -599 1 -434 3 -531 15 -554 14 -28 55 -60 90 -72 19 -6 19 -6 -2 -7 -12 -1 -35 11 -53 25 -62 53 -60 32 -60 614 0 565 -1 551 50 597 34 31 39 29 9 -4z m1471 -15 l30 -41 0 -534 c0 -347 -3 -532 -10 -528 -6 4 -10 201 -9 542 l0 536 -33 34 c-17 18 -27 33 -20 33 7 0 25 -19 42 -42z m-740 -292 c0 -2 -7 -7 -16 -10 -8 -3 -12 -2 -9 4 6 10 25 14 25 6z m25 -55 c-3 -6 -11 -11 -16 -11 -5 0 -4 6 3 14 14 16 24 13 13 -3z m21 -69 c1 -35 0 -41 -6 -22 -10 32 -12 86 -3 76 4 -3 8 -28 9 -54z m-100 11 c-11 -11 -19 6 -11 24 8 17 8 17 12 0 3 -10 2 -21 -1 -24z m147 -143 c4 -17 3 -19 -9 -9 -8 6 -14 18 -14 26 0 20 16 8 23 -17z m-183 10 c0 -5 -4 -10 -10 -10 -5 0 -10 5 -10 10 0 6 5 10 10 10 6 0 10 -4 10 -10z m0 -114 c0 -6 -7 -1 -15 10 -8 10 -15 23 -15 28 0 6 7 1 15 -10 8 -10 15 -23 15 -28z m181 21 c-10 -9 -11 -8 -5 6 3 10 9 15 12 12 3 -3 0 -11 -7 -18z m-47 -41 c-10 -8 -21 -12 -24 -10 -5 6 21 24 34 24 6 0 1 -6 -10 -14z m702 -474 c-17 -16 -18 -16 -5 5 7 12 15 20 18 17 3 -2 -3 -12 -13 -22z m-16 -26 c0 -7 -66 -46 -76 -46 -5 1 3 8 19 16 15 8 27 19 27 24 0 6 7 10 15 10 8 0 15 -2 15 -4z m-1234 -251 c0 -116 3 -218 7 -228 5 -13 -8 -37 -15 -25 -1 2 -4 102 -7 223 l-6 220 -40 3 c-68 6 -68 23 0 20 l60 -3 1 -210z m816 198 c16 -14 18 -34 18 -194 0 -108 -4 -180 -10 -184 -7 -4 -10 60 -10 184 l0 191 -314 0 c-277 0 -315 -2 -320 -16 -3 -9 -6 -90 -6 -180 0 -108 -3 -163 -10 -159 -6 4 -10 68 -10 159 0 119 3 160 16 184 l15 32 306 0 c271 0 309 -2 325 -17z m303 7 c4 -6 -15 -10 -49 -10 -47 0 -57 -3 -67 -22 -8 -15 -14 -18 -17 -10 -9 27 29 52 79 52 26 0 51 -4 54 -10z m-115 -365 c0 -13 -4 -27 -10 -30 -6 -4 -10 8 -10 30 0 22 4 34 10 30 6 -3 10 -17 10 -30z m-811 -85 c0 -9 -4 -8 -9 5 -5 11 -9 27 -9 35 0 9 4 8 9 -5 5 -11 9 -27 9 -35z m618 18 c-3 -7 -5 -2 -5 12 0 14 2 19 5 13 2 -7 2 -19 0 -25z m183 -30 c0 -18 -2 -20 -9 -8 -6 8 -7 18 -5 22 9 14 14 9 14 -14z m-966 -63 c8 -48 -8 -27 -19 25 -5 23 -4 32 3 25 5 -5 12 -28 16 -50z m194 18 c9 -27 28 -48 97 -108 l30 -27 -30 19 c-16 11 -38 23 -47 26 -10 4 -18 13 -18 20 0 8 -7 20 -16 28 -20 17 -47 69 -35 69 5 0 13 -12 19 -27z m548 -22 c-15 -21 -44 -52 -64 -68 -53 -42 -74 -51 -32 -15 19 17 38 31 42 32 4 0 21 22 39 50 18 27 35 48 37 45 3 -2 -7 -22 -22 -44z m199 -8 c-9 -15 -13 -19 -10 -8 4 11 10 29 13 40 3 11 7 14 9 8 3 -7 -3 -24 -12 -40z m-886 -98 c18 -27 24 -41 13 -30 -10 11 -29 38 -42 60 -30 52 -12 34 29 -30z m857 37 c-18 -16 -18 -16 -6 6 6 13 14 21 18 18 3 -4 -2 -14 -12 -24z m-25 -50 c-6 -11 -18 -22 -26 -26 -12 -4 -10 2 7 23 26 32 35 33 19 3z m-291 -2 c-8 -5 -19 -10 -25 -10 -5 0 -3 5 5 10 8 5 20 10 25 10 6 0 3 -5 -5 -10z m-205 -10 c13 -5 14 -9 5 -9 -8 0 -24 4 -35 9 -13 5 -14 9 -5 9 8 0 24 -4 35 -9z m162 -7 c-4 -3 -10 -3 -14 0 -3 4 0 7 7 7 7 0 10 -3 7 -7z m-92 -13 c3 -5 -1 -10 -9 -10 -8 0 -18 5 -21 10 -3 6 1 10 9 10 8 0 18 -4 21 -10z m45 6 c0 -3 -5 -8 -12 -12 -7 -4 -8 -3 -4 4 7 12 16 16 16 8z m-355 -66 c10 -11 16 -20 13 -20 -3 0 -13 9 -23 20 -10 11 -16 20 -13 20 3 0 13 -9 23 -20z m645 6 c0 -2 -8 -10 -17 -17 -16 -13 -17 -12 -4 4 13 16 21 21 21 13z m-530 -84 c-12 -4 -63 23 -79 42 -7 8 10 2 38 -12 28 -15 46 -28 41 -30z m480 43 c-7 -8 -17 -15 -23 -15 -6 0 -2 7 9 15 25 19 30 19 14 0z m-55 -34 c-3 -5 -19 -12 -35 -16 -16 -4 -32 -11 -35 -16 -4 -5 -20 -9 -36 -9 -18 0 -28 4 -24 10 4 6 11 7 17 4 5 -4 20 -2 31 4 69 32 92 38 82 23z m-345 -26 c9 0 20 -4 26 -7 5 -4 42 -5 81 -4 39 2 77 -1 85 -6 8 -6 -26 -8 -92 -6 -77 3 -113 9 -135 21 -26 16 -27 17 -5 11 14 -4 32 -8 40 -9z"/>
</g>
<g id="layer107" fill="#e21f2c" stroke="none">
<path d="M9625 4230 c-2302 -5 -2310 -5 -2309 -25 1 -11 2 -962 3 -2112 l1 -2093 2340 0 2340 0 0 2118 0 2117 -32 0 c-18 0 -1072 -2 -2343 -5z m-452 -1127 c-7 -2 -21 -2 -30 0 -10 3 -4 5 12 5 17 0 24 -2 18 -5z m-98 -13 c-28 -12 -37 -12 -30 0 3 6 16 10 28 9 21 0 21 -1 2 -9z m1335 0 c11 -7 8 -8 -13 -6 -15 1 -30 6 -34 9 -10 11 30 8 47 -3z m-1401 -37 c-50 -58 -49 -40 -49 -599 1 -434 3 -531 15 -554 14 -28 55 -60 90 -72 19 -6 19 -6 -2 -7 -12 -1 -35 11 -53 25 -62 53 -60 32 -60 614 0 565 -1 551 50 597 34 31 39 29 9 -4z m1471 -15 l30 -41 0 -534 c0 -347 -3 -532 -10 -528 -6 4 -10 201 -9 542 l0 536 -33 34 c-17 18 -27 33 -20 33 7 0 25 -19 42 -42z m-750 -298 c-13 -9 -13 -10 0 -11 8 -1 17 -1 21 -1 3 0 4 -13 3 -29 -2 -22 2 -29 14 -27 12 2 16 -3 13 -17 -9 -50 -5 -139 7 -143 6 -2 12 -10 12 -17 0 -7 8 -16 18 -20 14 -5 15 -4 5 6 -7 7 -13 20 -13 28 0 9 3 11 9 6 15 -15 22 -73 11 -80 -5 -3 -10 -12 -10 -18 0 -7 4 -6 11 3 9 13 10 13 6 0 -2 -8 -11 -14 -21 -12 -9 2 -16 -2 -16 -8 0 -5 -6 -10 -14 -10 -8 0 -18 -5 -22 -11 -4 -8 1 -9 17 -4 23 7 23 7 4 -8 -11 -9 -21 -11 -23 -6 -2 5 -14 9 -27 9 -13 0 -27 5 -30 10 -3 6 -15 10 -26 10 -10 0 -19 6 -19 14 0 8 -7 16 -15 20 -17 6 -21 -9 -5 -19 6 -3 10 -12 10 -18 0 -7 -6 -3 -12 8 -15 24 -17 84 -3 79 13 -5 27 6 43 33 15 29 16 120 0 125 -7 3 -9 12 -5 22 7 17 9 17 27 -4 11 -13 20 -29 20 -37 0 -8 5 -11 10 -8 16 10 12 65 -4 65 -19 0 -41 27 -26 32 6 2 13 12 15 23 2 11 4 21 4 23 1 1 7 2 14 2 8 0 7 -4 -3 -10z m37 -47 c-4 -3 -7 0 -7 7 0 7 3 10 7 7 3 -4 3 -10 0 -14z m20 -105 c-3 -7 -5 -2 -5 12 0 14 2 19 5 13 2 -7 2 -19 0 -25z m-137 -88 c0 -5 -4 -10 -10 -10 -5 0 -10 5 -10 10 0 6 5 10 10 10 6 0 10 -4 10 -10z m836 -608 c-17 -16 -18 -16 -5 5 7 12 15 20 18 17 3 -2 -3 -12 -13 -22z m-16 -26 c0 -7 -66 -46 -76 -46 -5 1 3 8 19 16 15 8 27 19 27 24 0 6 7 10 15 10 8 0 15 -2 15 -4z m-1234 -251 c0 -116 3 -218 7 -228 5 -13 -8 -37 -15 -25 -1 2 -4 102 -7 223 l-6 220 -40 3 c-68 6 -68 23 0 20 l60 -3 1 -210z m816 198 c16 -14 18 -34 18 -194 0 -108 -4 -180 -10 -184 -7 -4 -10 60 -10 184 l0 191 -314 0 c-277 0 -315 -2 -320 -16 -3 -9 -6 -90 -6 -180 0 -108 -3 -163 -10 -159 -6 4 -10 68 -10 159 0 119 3 160 16 184 l15 32 306 0 c271 0 309 -2 325 -17z m303 7 c4 -6 -15 -10 -49 -10 -47 0 -57 -3 -67 -22 -8 -15 -14 -18 -17 -10 -9 27 29 52 79 52 26 0 51 -4 54 -10z m-115 -365 c0 -13 -4 -27 -10 -30 -6 -4 -10 8 -10 30 0 22 4 34 10 30 6 -3 10 -17 10 -30z m-811 -85 c0 -9 -4 -8 -9 5 -5 11 -9 27 -9 35 0 9 4 8 9 -5 5 -11 9 -27 9 -35z m618 18 c-3 -7 -5 -2 -5 12 0 14 2 19 5 13 2 -7 2 -19 0 -25z m183 -30 c0 -18 -2 -20 -9 -8 -6 8 -7 18 -5 22 9 14 14 9 14 -14z m-966 -63 c8 -48 -8 -27 -19 25 -5 23 -4 32 3 25 5 -5 12 -28 16 -50z m194 18 c9 -27 28 -48 97 -108 l30 -27 -30 19 c-16 11 -38 23 -47 26 -10 4 -18 13 -18 20 0 8 -7 20 -16 28 -20 17 -47 69 -35 69 5 0 13 -12 19 -27z m548 -22 c-15 -21 -44 -52 -64 -68 -53 -42 -74 -51 -32 -15 19 17 38 31 42 32 4 0 21 22 39 50 18 27 35 48 37 45 3 -2 -7 -22 -22 -44z m199 -8 c-9 -15 -13 -19 -10 -8 4 11 10 29 13 40 3 11 7 14 9 8 3 -7 -3 -24 -12 -40z m-886 -98 c18 -27 24 -41 13 -30 -10 11 -29 38 -42 60 -30 52 -12 34 29 -30z m857 37 c-18 -16 -18 -16 -6 6 6 13 14 21 18 18 3 -4 -2 -14 -12 -24z m-25 -50 c-6 -11 -18 -22 -26 -26 -12 -4 -10 2 7 23 26 32 35 33 19 3z m-291 -2 c-8 -5 -19 -10 -25 -10 -5 0 -3 5 5 10 8 5 20 10 25 10 6 0 3 -5 -5 -10z m-205 -10 c13 -5 14 -9 5 -9 -8 0 -24 4 -35 9 -13 5 -14 9 -5 9 8 0 24 -4 35 -9z m162 -7 c-4 -3 -10 -3 -14 0 -3 4 0 7 7 7 7 0 10 -3 7 -7z m-92 -13 c3 -5 -1 -10 -9 -10 -8 0 -18 5 -21 10 -3 6 1 10 9 10 8 0 18 -4 21 -10z m45 6 c0 -3 -5 -8 -12 -12 -7 -4 -8 -3 -4 4 7 12 16 16 16 8z m-355 -66 c10 -11 16 -20 13 -20 -3 0 -13 9 -23 20 -10 11 -16 20 -13 20 3 0 13 -9 23 -20z m645 6 c0 -2 -8 -10 -17 -17 -16 -13 -17 -12 -4 4 13 16 21 21 21 13z m-530 -84 c-12 -4 -63 23 -79 42 -7 8 10 2 38 -12 28 -15 46 -28 41 -30z m480 43 c-7 -8 -17 -15 -23 -15 -6 0 -2 7 9 15 25 19 30 19 14 0z m-55 -34 c-3 -5 -19 -12 -35 -16 -16 -4 -32 -11 -35 -16 -4 -5 -20 -9 -36 -9 -18 0 -28 4 -24 10 4 6 11 7 17 4 5 -4 20 -2 31 4 69 32 92 38 82 23z m-345 -26 c9 0 20 -4 26 -7 5 -4 42 -5 81 -4 39 2 77 -1 85 -6 8 -6 -26 -8 -92 -6 -77 3 -113 9 -135 21 -26 16 -27 17 -5 11 14 -4 32 -8 40 -9z"/>
<path d="M9714 2566 c-6 -26 1 -46 17 -46 5 0 9 16 9 35 0 40 -17 47 -26 11z"/>
</g>
<g id="layer108" fill="#9b4752" stroke="none">
<path d="M2428 3144 c-5 -4 -23 -8 -40 -9 -39 -2 -135 -33 -143 -46 -4 -5 -14 -9 -24 -9 -23 0 -111 -68 -111 -86 0 -7 -9 -18 -20 -24 -11 -6 -20 -16 -20 -22 0 -6 -13 -32 -28 -57 -38 -61 -65 -146 -59 -181 4 -15 3 -30 0 -34 -9 -8 -9 -1017 0 -1023 4 -2 5 -20 1 -38 -3 -19 -2 -39 2 -46 4 -7 9 -26 11 -41 4 -37 43 -113 87 -170 19 -26 31 -49 28 -53 -4 -4 -2 -6 3 -5 16 3 55 -12 55 -21 0 -27 202 -106 245 -95 13 3 27 2 30 -4 7 -11 118 -14 129 -3 4 4 28 8 54 9 54 2 146 30 163 50 6 8 17 14 24 14 8 0 26 13 42 28 15 16 36 31 46 35 9 4 20 13 23 22 4 8 19 29 34 45 31 33 86 172 75 189 -3 6 -3 17 2 24 10 15 12 75 18 562 4 288 2 396 -6 412 -8 14 -10 44 -5 86 3 35 3 67 -1 71 -4 3 -8 25 -9 48 -3 51 -67 183 -100 204 -13 9 -24 21 -24 28 0 34 -181 123 -270 132 -115 12 -206 15 -212 8z m132 -361 c19 -24 19 -46 19 -627 l0 -603 -28 -27 c-28 -27 -30 -27 -55 -11 -14 10 -29 29 -32 44 -3 14 -10 37 -15 51 -14 38 -6 1083 9 1143 6 27 14 52 16 56 10 15 67 -2 86 -26z"/>
<path d="M3575 3144 c-40 -10 -131 -49 -160 -69 -45 -31 -119 -106 -137 -140 -37 -68 -60 -126 -55 -139 3 -8 3 -17 -1 -21 -10 -9 -10 -11 -10 -600 0 -595 0 -611 10 -620 4 -4 4 -13 1 -21 -3 -8 0 -20 6 -28 6 -7 9 -15 6 -18 -17 -17 72 -158 100 -158 8 0 23 -12 35 -27 49 -62 201 -131 261 -118 15 4 30 1 34 -4 8 -14 122 -14 130 -1 4 6 21 8 38 5 35 -7 166 32 195 58 10 8 25 17 35 20 9 4 17 11 17 17 0 5 6 10 14 10 7 0 21 11 30 25 9 14 23 25 31 25 8 0 15 6 15 14 0 8 7 16 15 19 17 7 68 104 60 117 -3 5 0 12 6 15 5 4 8 13 5 21 -3 7 0 16 5 20 6 3 8 17 5 29 -3 13 -1 27 5 30 7 5 8 25 4 55 -4 30 -3 50 4 55 7 4 11 45 11 105 l0 99 -242 -2 -243 -2 -1 -184 -1 -184 -28 -23 c-26 -21 -29 -21 -56 -5 -16 9 -29 23 -29 32 0 9 -3 18 -6 21 -7 7 -6 1169 1 1176 3 3 5 15 5 27 0 32 17 42 58 36 36 -6 40 -11 72 -81 4 -8 5 -88 2 -177 l-5 -163 -34 0 c-18 0 -35 -6 -37 -12 -3 -7 -7 -74 -10 -148 l-5 -135 280 -3 279 -2 -2 507 -3 507 -153 1 -152 0 -16 -50 c-9 -27 -18 -52 -20 -53 -1 -2 -24 18 -51 45 -57 58 -99 87 -118 79 -8 -3 -17 -1 -20 4 -3 5 -13 9 -23 10 -9 0 -44 3 -77 5 -33 2 -69 1 -80 -1z"/>
<path d="M1164 3095 c-2 -5 -3 -431 -2 -945 l3 -935 238 -3 238 -2 -1 227 c0 126 -1 463 0 751 l0 522 134 0 c96 0 137 4 144 13 7 8 10 79 9 196 l-2 183 -379 2 c-244 0 -380 -3 -382 -9z"/>
<path d="M5100 2158 l0 -948 194 0 c211 0 216 1 221 57 1 16 8 41 14 56 6 16 32 101 57 190 26 89 50 171 55 182 19 45 49 149 44 153 -3 3 1 15 8 26 8 12 17 34 21 50 7 27 8 27 21 10 12 -16 15 -80 14 -369 l0 -350 193 -3 193 -2 0 947 0 948 -204 -2 c-112 -1 -207 -5 -211 -10 -8 -9 -90 -320 -90 -341 0 -7 -4 -20 -10 -30 -10 -17 -51 -155 -55 -182 -1 -8 -7 -28 -13 -43 -7 -15 -11 -31 -10 -35 1 -4 -4 -20 -11 -37 -7 -16 -15 -42 -18 -57 -3 -15 -10 -25 -15 -22 -5 4 -8 158 -7 382 l2 377 -197 0 -196 0 0 -947z m637 -195 c-4 -3 -7 0 -7 7 0 7 3 10 7 7 3 -4 3 -10 0 -14z"/>
</g>
<g id="layer109" fill="#b2394b" stroke="none">
<path d="M2426 3143 c-3 -4 -24 -8 -46 -9 -21 -1 -49 -9 -62 -18 -12 -9 -32 -16 -45 -16 -12 0 -25 -4 -28 -10 -3 -5 -14 -10 -24 -10 -19 0 -111 -67 -111 -81 0 -5 -15 -30 -34 -56 -36 -51 -68 -116 -71 -145 -1 -10 -8 -25 -15 -33 -8 -9 -10 -29 -7 -49 3 -19 3 -36 0 -39 -8 -9 -9 -1019 0 -1024 4 -2 5 -20 1 -38 -3 -19 -2 -39 2 -46 4 -7 9 -27 11 -43 2 -17 7 -32 12 -35 4 -4 11 -18 15 -33 3 -15 20 -42 36 -60 17 -18 30 -37 30 -44 0 -6 33 -34 73 -62 39 -28 77 -55 82 -60 19 -15 76 -35 82 -28 4 3 17 -1 31 -10 15 -10 35 -14 53 -10 15 3 31 1 34 -4 7 -12 118 -14 129 -3 4 4 28 8 54 9 60 1 137 28 174 59 16 14 33 25 37 25 16 0 151 143 151 160 0 10 5 22 10 25 6 3 10 16 10 28 0 13 7 33 16 45 9 13 13 30 10 38 -3 9 -3 21 1 27 10 15 12 79 18 562 4 288 2 396 -6 412 -8 14 -10 44 -5 87 4 42 3 67 -4 71 -6 4 -8 15 -5 25 3 9 0 30 -6 46 -7 16 -11 33 -10 37 1 4 -5 15 -14 23 -8 9 -15 23 -15 32 0 9 -9 31 -20 47 -11 17 -20 26 -20 21 0 -5 -9 3 -20 17 -11 14 -20 29 -20 34 0 5 -12 16 -27 24 -15 8 -38 24 -51 36 -13 12 -46 27 -75 33 -28 6 -57 16 -64 22 -7 6 -16 8 -19 5 -3 -2 -31 1 -62 9 -60 14 -174 19 -186 7z m116 -332 c9 -1 21 -14 26 -31 7 -19 11 -242 11 -630 l1 -601 -26 -24 c-15 -14 -32 -25 -39 -25 -17 0 -37 25 -27 35 4 5 2 5 -5 1 -14 -8 -25 8 -32 49 -8 43 -7 1111 1 1163 8 53 21 69 50 66 13 -1 30 -3 40 -3z"/>
<path d="M3564 3141 c-17 -4 -42 -15 -55 -24 -13 -10 -33 -17 -45 -17 -12 0 -24 -7 -28 -15 -3 -8 -11 -15 -18 -15 -7 0 -36 -24 -65 -54 -29 -29 -54 -52 -56 -50 -1 2 -11 -13 -21 -34 -10 -20 -22 -45 -27 -54 -5 -10 -9 -27 -9 -37 0 -11 -4 -22 -9 -26 -6 -3 -10 -13 -10 -23 0 -9 -3 -35 -5 -57 -8 -80 -5 -1150 4 -1180 1 -5 2 -14 1 -19 -1 -6 2 -19 7 -30 6 -12 15 -40 21 -63 7 -24 16 -43 20 -43 5 0 11 -10 14 -22 4 -12 9 -19 13 -15 4 4 33 -18 64 -49 32 -31 71 -65 86 -75 43 -28 154 -61 185 -54 15 4 30 1 34 -4 8 -14 122 -14 130 -1 4 6 21 8 40 4 20 -3 42 -1 56 7 13 7 30 12 37 11 7 -2 49 19 94 45 82 49 208 171 208 203 0 8 7 28 15 44 8 15 13 32 10 36 -3 5 0 12 6 15 6 4 8 18 5 30 -3 13 -1 27 5 30 7 5 8 25 4 55 -4 29 -3 50 4 54 6 4 9 47 9 106 l-2 99 -240 -2 -241 -2 -3 -139 c-1 -82 1 -143 7 -149 7 -7 7 -17 0 -29 -5 -10 -7 -22 -4 -27 8 -15 -5 -39 -32 -56 -20 -14 -27 -14 -41 -3 -13 11 -14 11 -8 0 7 -11 4 -12 -13 -3 -12 7 -21 22 -21 35 0 12 -3 25 -6 28 -7 8 -6 1170 1 1194 14 42 22 49 56 46 19 -2 44 -14 57 -26 26 -25 28 -49 24 -263 l-2 -132 -37 -3 -38 -3 -6 -135 c-4 -78 -3 -139 2 -145 6 -5 121 -11 279 -12 l269 -3 -2 507 -2 507 -152 1 c-84 0 -154 -2 -154 -5 -1 -3 -3 -15 -4 -27 -1 -13 -8 -29 -14 -37 -7 -8 -11 -22 -9 -32 2 -9 -3 -19 -9 -21 -7 -3 -13 3 -13 13 0 24 -95 114 -120 114 -12 0 -18 4 -15 10 3 6 -1 7 -10 4 -8 -4 -21 -2 -28 4 -14 11 -20 12 -102 17 -33 2 -74 0 -91 -4z"/>
<path d="M1517 3103 l-357 -3 2 -943 3 -942 238 -3 238 -2 -1 227 c0 126 -1 463 0 751 l0 522 134 0 c96 0 137 4 144 13 7 8 10 79 9 197 l-2 185 -25 0 c-14 1 -186 -1 -383 -2z"/>
<path d="M4457 2160 l3 -945 230 0 231 0 2 945 2 945 -235 0 -235 0 2 -945z"/>
<path d="M5100 2158 l0 -948 194 0 c213 0 215 1 222 62 1 18 4 33 5 33 0 0 3 11 4 25 2 14 9 39 16 55 7 17 13 38 14 47 1 10 8 24 14 32 7 8 10 20 7 25 -4 5 -1 13 5 16 5 4 8 13 5 20 -2 7 2 25 10 41 8 15 19 48 25 73 5 25 19 65 29 88 11 24 20 54 20 67 0 14 5 28 11 31 6 4 8 13 5 20 -2 7 1 21 8 31 7 11 16 32 20 48 7 27 8 27 21 10 12 -16 15 -80 14 -369 l0 -350 193 -2 193 -1 0 946 0 947 -202 -2 c-112 -1 -207 -4 -213 -8 -5 -3 -7 -12 -3 -20 3 -9 0 -22 -6 -29 -16 -19 -33 -78 -20 -71 10 7 1 -24 -13 -41 -5 -7 -8 -16 -7 -20 1 -5 0 -16 -3 -24 -3 -8 -10 -33 -16 -55 -6 -22 -24 -84 -41 -138 -17 -54 -31 -107 -31 -117 0 -10 -5 -22 -11 -25 -6 -4 -8 -13 -5 -21 3 -7 1 -16 -3 -18 -5 -3 -8 -16 -8 -29 0 -12 -10 -44 -22 -70 -12 -26 -20 -54 -19 -62 2 -7 -1 -14 -7 -14 -6 -1 -10 134 -11 382 l-2 382 -196 0 -196 0 0 -947z m645 -177 c3 -5 1 -12 -5 -16 -5 -3 -10 1 -10 9 0 18 6 21 15 7z"/>
<path d="M9065 3088 c-16 -6 -40 -20 -53 -31 -53 -48 -52 -40 -52 -604 1 -574 -1 -557 60 -602 28 -20 45 -24 124 -25 l91 -1 2 -215 c3 -249 3 -252 13 -265 4 -5 11 -28 14 -49 10 -56 88 -167 149 -215 56 -43 152 -91 190 -95 12 -1 27 -5 32 -8 9 -5 184 -4 195 2 3 1 9 2 14 1 6 -1 19 2 30 7 12 6 37 16 56 23 51 18 150 91 187 137 43 53 95 157 99 196 1 17 3 33 4 36 1 3 1 97 0 210 -1 196 0 207 19 224 17 16 31 18 83 13 62 -5 118 10 118 33 0 6 6 10 13 10 36 0 38 26 38 593 l0 551 -34 34 c-18 18 -45 34 -60 36 -15 1 -30 6 -34 9 -11 12 -1265 7 -1298 -5z m700 -384 c14 -28 20 -59 20 -109 0 -55 3 -70 15 -70 33 0 53 -92 27 -126 -31 -41 -86 -50 -154 -27 -62 22 -75 119 -20 143 19 9 22 18 22 75 1 71 35 165 57 158 7 -2 22 -22 33 -44z m287 -891 c16 -14 18 -34 18 -190 0 -95 -4 -181 -9 -191 -5 -9 -16 -43 -25 -75 -13 -44 -29 -69 -68 -108 -52 -52 -135 -99 -175 -99 -12 0 -25 -4 -28 -10 -3 -5 -19 -10 -35 -10 -16 0 -32 5 -35 10 -3 6 -16 10 -29 10 -20 0 -46 12 -148 67 -16 8 -28 20 -28 27 0 7 -9 21 -20 31 -22 20 -60 114 -60 150 0 13 -4 27 -10 30 -6 4 -10 68 -10 159 0 119 3 160 16 184 l15 32 306 0 c271 0 309 -2 325 -17z"/>
</g>
<g id="layer110" fill="#dc3447" stroke="none">
<path d="M11995 3315 c0 -511 1 -719 2 -462 2 258 2 676 0 930 -1 254 -2 44 -2 -468z"/>
<path d="M9085 3090 c-3 -5 -16 -10 -29 -10 -22 0 -60 -35 -83 -77 -10 -17 -13 -149 -13 -552 l1 -530 41 -43 41 -43 96 -5 96 -5 2 -215 c3 -249 3 -252 13 -265 4 -5 11 -27 14 -49 8 -42 84 -166 100 -163 6 1 10 -3 11 -10 0 -17 46 -51 148 -108 15 -9 49 -20 75 -26 61 -14 221 -19 228 -7 3 4 9 6 14 3 5 -3 17 -1 27 4 10 5 37 15 60 22 23 6 52 23 64 35 13 13 27 24 32 24 53 0 181 189 193 285 1 11 3 22 4 25 1 3 2 104 3 225 l2 220 85 0 c81 1 130 14 130 35 0 6 6 10 13 10 37 0 38 26 38 586 -1 311 -5 552 -10 562 -17 31 -58 63 -85 66 -14 1 -29 6 -33 9 -11 12 -1271 8 -1278 -3z m680 -386 c14 -27 20 -59 20 -104 0 -36 5 -66 10 -68 29 -9 51 -44 48 -75 -8 -62 -41 -96 -98 -102 -33 -3 -103 27 -114 49 -22 45 -12 96 22 111 19 9 22 18 22 75 1 71 35 165 57 158 7 -2 22 -22 33 -44z m303 -1067 c2 -186 2 -188 -28 -273 -32 -90 -65 -132 -134 -169 -20 -11 -36 -23 -36 -26 0 -4 -22 -10 -50 -14 -27 -4 -52 -11 -56 -16 -7 -12 -61 -11 -69 1 -3 6 -16 10 -28 10 -22 0 -93 32 -151 68 -27 16 -55 51 -72 92 -30 68 -37 88 -35 112 1 14 -2 29 -8 33 -12 7 -16 357 -4 368 4 4 155 6 337 5 l331 -3 3 -188z"/>
<path d="M11995 1045 c0 -456 1 -645 2 -418 2 226 2 600 0 830 -1 230 -2 45 -2 -412z"/>
</g>
<g id="layer111" fill="#b54b58" stroke="none">
<path d="M11992 4215 c0 -16 2 -22 5 -12 2 9 2 23 0 30 -3 6 -5 -1 -5 -18z"/>
<path d="M2479 3145 c-3 -2 -25 -6 -50 -8 -59 -5 -153 -34 -215 -66 -85 -43 -203 -199 -211 -280 -1 -13 -5 -31 -9 -40 -11 -24 -13 -105 -13 -581 0 -489 2 -571 12 -587 4 -7 8 -28 9 -48 1 -20 5 -38 10 -41 4 -3 8 -13 8 -23 0 -10 16 -38 35 -62 19 -24 35 -49 35 -55 0 -11 100 -86 164 -123 22 -12 58 -25 80 -27 22 -3 45 -8 50 -12 16 -9 257 -9 262 0 3 5 10 6 15 3 5 -4 14 -3 21 1 7 4 21 9 33 10 32 3 135 69 192 123 49 46 103 128 103 157 0 7 5 25 12 41 19 46 19 66 19 638 0 489 -2 584 -11 613 -1 4 -3 12 -4 17 -1 6 -9 27 -19 49 -9 21 -17 43 -17 48 0 14 -111 143 -126 146 -8 2 -14 8 -14 12 0 11 -77 50 -99 50 -9 0 -29 7 -45 15 -16 9 -31 14 -33 11 -2 -2 -32 3 -66 10 -64 14 -120 18 -128 9z m63 -334 c34 -2 37 -51 38 -661 l0 -601 -26 -24 c-15 -14 -32 -25 -39 -25 -20 0 -58 48 -64 82 -8 46 -8 1113 1 1166 8 53 21 69 50 66 13 -1 30 -3 40 -3z"/>
<path d="M3630 3147 c-3 -3 -25 -8 -50 -11 -25 -3 -58 -12 -75 -20 -16 -8 -37 -17 -45 -21 -58 -23 -123 -85 -176 -168 -24 -37 -44 -76 -44 -87 0 -10 -4 -21 -9 -25 -6 -3 -10 -13 -10 -23 0 -9 -3 -35 -5 -57 -6 -59 -6 -1061 0 -1125 3 -30 5 -65 5 -77 0 -12 4 -25 9 -28 6 -3 10 -15 10 -25 0 -73 213 -270 292 -270 9 0 20 -5 23 -11 4 -6 13 -8 21 -5 7 3 15 2 18 -2 4 -6 262 -8 276 -2 3 1 10 3 15 5 6 1 12 3 15 4 3 1 17 4 31 6 49 6 170 88 235 160 35 38 64 75 64 81 0 7 5 25 12 41 18 43 25 86 32 198 3 39 7 103 10 142 5 64 3 74 -13 83 -11 6 -109 9 -238 9 l-218 -1 -1 -156 c-2 -198 -5 -220 -35 -243 -42 -33 -83 -18 -93 33 -8 41 -9 1187 -1 1214 13 41 23 49 55 47 20 -1 43 -11 57 -25 27 -28 29 -49 25 -270 l-2 -138 -39 0 -38 0 -5 -132 c-3 -75 -2 -137 4 -143 5 -6 113 -10 276 -10 l267 0 0 505 0 504 -45 0 c-265 -3 -250 -2 -261 -31 -5 -16 -13 -35 -16 -43 -4 -8 -7 -21 -7 -29 -2 -24 -24 -23 -31 1 -9 27 -91 108 -110 108 -8 0 -26 5 -42 12 -15 6 -35 13 -43 14 -61 12 -96 15 -100 11z"/>
<path d="M1520 3100 l-355 -5 0 -935 0 -935 235 0 235 0 2 745 3 745 129 5 c71 3 133 9 138 13 11 12 12 337 1 360 -5 9 -14 16 -21 15 -7 -2 -172 -5 -367 -8z"/>
<path d="M4683 3102 l-223 -2 0 -924 c0 -509 -3 -932 -6 -940 -6 -15 17 -16 230 -14 l237 3 0 940 c1 516 -3 940 -7 940 -5 0 -109 -1 -231 -3z"/>
<path d="M5104 3101 c-9 -9 -4 -1870 6 -1876 5 -3 88 -6 184 -6 175 -1 223 7 213 36 -3 7 0 23 7 36 6 13 12 33 13 44 1 11 7 34 14 50 7 17 13 38 14 47 1 10 8 24 14 32 7 8 10 20 7 25 -4 5 -1 13 5 16 5 4 8 13 5 20 -2 7 2 25 10 41 9 16 20 51 26 79 6 27 14 55 18 60 4 6 18 48 30 95 12 46 25 89 30 95 4 5 14 29 21 53 7 23 16 39 21 34 4 -4 9 -176 10 -382 l3 -375 188 -3 c146 -2 187 0 187 10 2 195 -1 1862 -3 1864 -1 2 -92 4 -202 5 -180 1 -199 0 -201 -16 -1 -9 -10 -32 -19 -51 -9 -19 -14 -38 -10 -43 3 -5 0 -22 -7 -38 -6 -15 -13 -32 -13 -38 -1 -5 -4 -17 -7 -25 -3 -8 -10 -33 -16 -55 -20 -77 -54 -190 -63 -213 -5 -13 -9 -31 -9 -42 0 -10 -5 -31 -12 -47 -6 -15 -12 -35 -14 -43 -3 -31 -26 -105 -35 -116 -5 -7 -8 -16 -7 -20 2 -5 -1 -10 -7 -11 -7 -2 -10 130 -11 380 l-2 382 -192 0 c-105 0 -193 -2 -196 -4z"/>
<path d="M9115 3090 c-11 -5 -32 -9 -46 -9 -33 -1 -73 -32 -93 -73 -14 -26 -16 -102 -16 -559 l1 -528 41 -43 41 -43 96 -5 96 -5 2 -215 c2 -229 15 -319 53 -372 11 -15 20 -32 20 -38 0 -15 112 -126 151 -150 98 -59 150 -72 274 -71 122 1 124 1 130 12 4 5 15 9 25 9 23 0 94 36 111 56 6 8 18 14 26 14 7 0 16 7 19 15 4 8 12 15 20 15 8 0 14 6 14 14 0 8 13 24 29 35 34 24 102 155 106 203 2 18 4 35 4 38 1 3 3 102 4 220 l2 215 75 1 c41 1 83 2 92 3 9 0 35 19 58 41 l41 40 0 546 c-1 595 1 572 -57 611 -14 9 -42 18 -62 21 -71 8 -1237 10 -1257 2z m651 -367 c4 -16 10 -32 14 -38 4 -5 8 -41 9 -79 2 -60 5 -71 27 -89 14 -11 29 -30 34 -42 12 -32 -18 -89 -55 -105 -37 -15 -104 -20 -127 -9 -23 12 -58 72 -58 101 0 23 44 76 58 71 4 -2 7 27 8 65 0 91 26 152 65 152 12 0 21 -10 25 -27z m298 -1098 c-1 -200 -3 -229 -18 -253 -4 -6 -5 -16 -2 -21 3 -5 -1 -14 -9 -21 -8 -7 -15 -18 -15 -26 0 -13 -75 -94 -87 -94 -4 0 -21 -11 -39 -25 -18 -14 -39 -25 -46 -25 -8 0 -19 -5 -24 -10 -23 -23 -109 -23 -170 -1 -142 53 -171 76 -213 168 -5 11 -15 24 -21 28 -5 3 -8 11 -5 16 4 5 3 14 -1 21 -4 7 -10 23 -12 37 -7 42 -13 383 -8 398 5 11 66 13 338 11 l333 -3 -1 -200z"/>
</g>
<g id="layer112" fill="#9b5a65" stroke="none">
<path d="M2309 3107 c-97 -34 -151 -68 -208 -133 -39 -44 -93 -141 -97 -174 -23 -175 -26 -262 -21 -713 5 -572 2 -550 97 -716 26 -46 138 -125 213 -150 88 -30 208 -43 292 -32 39 5 74 6 78 4 4 -3 13 0 20 5 7 5 30 15 52 22 91 29 168 91 234 190 46 69 60 124 72 280 12 158 10 806 -3 965 -5 66 -10 126 -10 134 -1 8 -16 46 -35 84 -86 176 -263 270 -499 266 -83 -2 -116 -8 -185 -32z m238 -295 c30 -19 33 -70 33 -663 l0 -600 -26 -24 c-15 -14 -32 -25 -39 -25 -20 0 -58 48 -64 82 -3 18 -6 292 -6 608 0 535 1 578 18 603 18 27 57 36 84 19z"/>
<path d="M3556 3129 c-50 -12 -142 -61 -190 -101 -44 -36 -126 -159 -126 -188 0 -10 -4 -21 -8 -24 -15 -9 -17 -89 -17 -661 0 -639 2 -665 66 -751 118 -160 245 -220 459 -215 118 2 148 5 170 14 8 3 38 15 66 25 111 41 238 162 262 250 26 96 33 150 38 272 3 69 7 131 9 137 9 27 -37 33 -245 32 -150 -1 -212 -4 -215 -12 -2 -7 -5 -86 -8 -177 -2 -93 -8 -174 -14 -185 -33 -61 -105 -54 -122 12 -14 55 -13 1179 1 1207 6 11 14 28 18 36 4 8 20 16 36 18 22 2 37 -5 59 -28 l30 -31 3 -190 4 -189 -45 0 -44 0 -5 -132 c-3 -75 -2 -137 4 -143 5 -6 111 -10 271 -10 l262 0 5 465 c3 256 3 481 2 501 -3 33 -7 37 -35 41 -18 2 -84 2 -147 -1 l-114 -6 -17 -55 c-18 -59 -33 -73 -44 -39 -12 36 -66 84 -125 109 -62 26 -179 36 -244 19z"/>
<path d="M1530 3103 c-189 -2 -348 -7 -352 -11 -4 -4 -8 -426 -8 -937 l0 -930 232 0 233 0 2 745 3 745 129 5 c71 3 133 9 138 13 11 12 12 337 1 360 -5 9 -14 16 -21 15 -7 -2 -167 -4 -357 -5z"/>
<path d="M5105 3088 c-3 -7 -4 -429 -3 -938 l3 -925 179 -2 c168 -2 216 4 216 27 0 5 5 21 12 37 6 15 12 35 13 44 3 28 67 234 77 245 5 7 8 16 6 20 -2 9 16 71 32 109 4 11 23 72 40 135 37 130 48 156 61 143 5 -5 10 -177 11 -383 l3 -375 184 -3 c106 -1 187 1 190 7 3 5 5 428 3 940 l-2 931 -199 0 -199 0 -13 -32 c-7 -18 -13 -43 -15 -56 -3 -25 -20 -84 -34 -117 -4 -11 -13 -38 -19 -60 -5 -22 -22 -80 -36 -130 -15 -49 -30 -108 -35 -130 -24 -106 -66 -236 -75 -233 -6 2 -11 122 -12 328 -1 179 -2 349 -3 378 l0 52 -190 0 c-143 0 -192 -3 -195 -12z"/>
</g>
<g id="layer113" fill="#cf4754" stroke="none">
<path d="M11992 4210 c0 -14 2 -19 5 -12 2 6 2 18 0 25 -3 6 -5 1 -5 -13z"/>
<path d="M3556 3129 c-51 -12 -145 -63 -195 -105 -48 -42 -93 -113 -123 -196 -23 -62 -23 -72 -26 -598 -4 -603 2 -691 48 -785 56 -117 183 -214 320 -245 30 -7 100 -13 155 -13 168 1 290 43 390 135 97 88 129 164 145 343 15 166 13 242 -6 249 -30 12 -435 5 -439 -7 -2 -7 -6 -86 -8 -177 -4 -178 -14 -216 -54 -227 -39 -9 -71 12 -82 54 -5 22 -10 280 -10 613 -1 528 1 578 17 610 18 36 43 47 86 36 42 -10 50 -48 54 -248 l4 -188 -46 0 -46 0 0 -139 0 -140 53 -5 c28 -2 149 -4 267 -3 l215 2 3 501 2 501 -32 5 c-18 2 -85 2 -148 -1 l-114 -6 -17 -55 c-9 -30 -20 -55 -25 -57 -5 -1 -19 13 -32 32 -63 99 -215 147 -356 114z"/>
<path d="M1176 3091 c-3 -5 -6 -427 -6 -937 l0 -929 232 0 233 0 2 745 3 745 129 5 c71 3 133 9 138 13 8 9 13 332 5 355 -3 9 -86 12 -367 12 -201 0 -366 -4 -369 -9z"/>
<path d="M4460 2176 c0 -508 -3 -932 -6 -940 -6 -15 17 -16 227 -14 l234 3 5 938 5 937 -232 0 -233 0 0 -924z"/>
<path d="M9079 3081 c-65 -18 -83 -31 -104 -73 -13 -26 -15 -108 -15 -560 l1 -530 45 -41 c46 -42 47 -42 137 -47 l92 -5 2 -215 c2 -229 15 -319 53 -372 11 -15 20 -31 20 -37 0 -15 113 -127 151 -150 98 -60 150 -73 274 -72 122 1 124 1 130 12 4 5 15 9 25 9 23 0 94 36 111 56 6 8 18 14 26 14 7 0 16 7 19 15 4 8 12 15 20 15 8 0 14 6 14 13 0 7 17 31 38 52 36 38 84 117 80 133 -2 8 12 74 19 85 3 4 6 106 6 225 l2 217 75 1 c41 1 83 2 92 3 9 0 35 19 58 41 l41 40 0 545 c-1 311 -5 553 -10 563 -18 33 -51 55 -99 65 -27 6 -294 11 -647 12 -527 2 -607 0 -656 -14z m687 -358 c4 -16 10 -32 14 -38 4 -5 8 -41 9 -79 2 -60 5 -71 27 -89 31 -24 49 -66 34 -81 -5 -5 -10 -18 -10 -28 0 -31 -105 -66 -157 -53 -28 7 -73 72 -73 106 0 24 43 77 58 72 4 -2 7 27 8 65 0 91 26 152 65 152 12 0 21 -10 25 -27z m299 -1114 c0 -166 -3 -220 -13 -232 -8 -9 -11 -20 -8 -25 3 -6 -1 -15 -9 -22 -8 -7 -15 -18 -15 -26 0 -13 -75 -94 -87 -94 -4 0 -21 -11 -39 -25 -18 -14 -39 -25 -46 -25 -8 0 -19 -5 -24 -10 -23 -23 -109 -23 -170 -1 -119 44 -167 75 -188 121 -11 24 -31 57 -45 74 -7 8 -15 35 -18 58 -8 64 -15 399 -9 415 5 11 66 13 338 11 l333 -3 0 -216z"/>
</g>
<g id="layer114" fill="#fae2df" stroke="none">
<path d="M2390 3130 c-114 -20 -219 -76 -288 -156 -49 -54 -75 -106 -99 -194 -16 -59 -18 -118 -18 -620 0 -500 2 -561 18 -619 63 -231 242 -354 512 -354 206 0 348 66 445 208 81 119 95 259 87 885 -6 460 -11 510 -62 610 -34 68 -117 150 -184 185 -112 56 -276 78 -411 55z m157 -318 c30 -19 33 -70 33 -657 0 -433 -3 -601 -12 -620 -23 -52 -99 -37 -115 23 -5 15 -8 293 -8 617 0 549 1 593 18 618 18 27 57 36 84 19z"/>
<path d="M3556 3129 c-51 -12 -145 -63 -195 -105 -48 -42 -93 -113 -123 -196 -23 -62 -23 -72 -26 -598 -4 -603 2 -691 48 -785 56 -117 183 -214 320 -245 30 -7 100 -13 155 -13 168 1 290 43 390 135 97 88 129 164 145 343 15 166 13 242 -6 249 -30 12 -435 5 -439 -7 -2 -7 -6 -86 -8 -177 -4 -178 -14 -216 -54 -227 -39 -9 -71 12 -82 54 -7 25 -11 240 -11 613 0 527 1 578 18 610 18 36 43 47 86 36 42 -10 50 -48 54 -248 l4 -188 -46 0 -46 0 0 -139 0 -140 53 -5 c28 -2 149 -4 267 -3 l215 2 3 503 2 503 -147 -3 -147 -3 -17 -55 c-9 -30 -20 -55 -25 -57 -5 -1 -19 13 -32 32 -63 99 -215 147 -356 114z"/>
<path d="M1175 3088 c-3 -7 -4 -429 -3 -938 l3 -925 230 0 230 0 2 745 3 745 129 5 c71 3 133 9 138 13 8 9 13 332 5 355 -3 9 -86 12 -368 12 -283 0 -366 -3 -369 -12z"/>
<path d="M4462 2163 l3 -938 225 0 225 0 3 938 2 937 -230 0 -230 0 2 -937z"/>
<path d="M5105 3088 c-3 -7 -4 -429 -3 -938 l3 -925 181 -2 c128 -1 186 2 197 10 8 7 40 95 70 197 31 102 76 250 101 330 26 80 46 148 46 152 0 4 10 33 23 65 l22 58 5 -405 5 -405 184 -3 c106 -1 187 1 190 7 3 5 5 428 3 940 l-2 931 -200 0 -199 0 -17 -57 c-9 -32 -36 -125 -60 -208 -24 -82 -66 -232 -93 -333 -28 -100 -55 -190 -60 -200 -7 -12 -10 113 -11 391 l0 407 -190 0 c-143 0 -192 -3 -195 -12z"/>
<path d="M9078 3080 c-48 -14 -86 -49 -103 -93 -14 -37 -15 -102 -13 -549 3 -494 4 -507 24 -534 41 -56 69 -69 162 -74 l87 -5 5 -235 c5 -210 8 -241 27 -288 51 -127 140 -222 258 -278 139 -67 277 -65 421 6 119 58 199 148 252 284 12 32 17 94 22 276 l5 235 86 5 c74 5 91 9 122 33 20 15 42 37 47 48 7 13 11 193 10 546 0 588 2 565 -70 608 -34 19 -51 20 -675 22 -352 1 -652 -2 -667 -7z m692 -362 c13 -29 20 -66 20 -112 0 -61 3 -70 26 -88 82 -65 25 -168 -93 -168 -66 0 -113 42 -113 101 0 29 7 43 30 62 27 23 30 32 30 84 0 141 59 212 100 121z m298 -1073 c4 -264 -14 -332 -113 -424 -70 -64 -124 -85 -225 -85 -75 0 -92 4 -146 31 -72 37 -127 95 -162 172 -25 53 -27 65 -30 259 -2 111 -1 209 2 217 5 13 50 15 338 13 l333 -3 3 -180z"/>
</g>
<g id="layer115" fill="#fcdde3" stroke="none">
<path d="M2424 3129 c-3 -6 -16 -8 -28 -5 -32 9 -174 -44 -207 -77 -16 -16 -29 -25 -29 -22 0 4 -7 2 -15 -5 -8 -7 -13 -16 -10 -20 3 -5 -10 -20 -27 -36 -18 -15 -33 -31 -33 -35 0 -4 -9 -15 -20 -23 -11 -8 -17 -17 -13 -21 8 -8 -11 -67 -24 -76 -12 -8 -29 -81 -17 -73 12 7 11 -20 -1 -32 -6 -6 -13 -48 -17 -94 -5 -70 -4 -82 8 -75 11 6 12 5 2 -6 -19 -19 -19 -719 0 -738 10 -11 10 -13 0 -7 -16 9 -16 -12 -3 -148 7 -70 15 -105 27 -119 10 -11 12 -17 6 -13 -9 5 -11 2 -7 -8 3 -9 10 -16 16 -16 5 0 6 -5 3 -10 -4 -6 5 -23 19 -37 15 -15 25 -31 23 -37 -8 -21 56 -88 102 -108 25 -11 61 -31 79 -45 18 -13 40 -22 48 -19 8 3 13 2 10 -3 -3 -5 3 -11 14 -14 11 -3 17 -1 14 4 -6 11 45 1 61 -11 20 -15 135 -23 150 -10 8 7 26 10 39 6 14 -3 27 -2 30 3 3 4 17 6 31 3 14 -2 33 2 43 10 25 21 75 41 66 27 -4 -7 -2 -10 5 -8 7 3 13 9 14 14 1 10 14 18 82 53 34 18 80 69 80 90 0 7 10 21 22 30 14 10 24 31 27 50 2 19 8 38 14 44 6 6 8 16 6 23 -3 7 -1 16 5 20 6 3 8 17 5 31 -3 13 -1 31 5 38 8 10 10 38 5 90 -5 52 -3 80 5 90 17 20 5 861 -13 899 -4 9 -5 28 -2 41 4 17 -6 47 -33 100 -21 42 -35 73 -30 70 5 -3 9 -1 9 4 0 5 -16 22 -36 37 -19 15 -33 30 -30 33 9 8 -25 42 -43 42 -17 1 -61 30 -45 30 18 1 -28 22 -53 25 -14 1 -29 8 -33 15 -5 7 -22 13 -39 12 -17 0 -44 6 -59 14 -33 17 -197 20 -208 3z m130 -324 c8 -9 18 -32 21 -53 3 -20 10 -45 16 -54 13 -25 12 -1075 -1 -1083 -5 -3 -10 -18 -10 -33 0 -15 -9 -41 -20 -59 -18 -30 -21 -32 -51 -21 -17 6 -39 24 -48 39 -9 16 -18 29 -21 29 -3 0 -4 266 -3 591 2 573 2 591 22 625 16 26 27 34 50 34 16 0 36 -7 45 -15z"/>
<path d="M3596 3131 c-3 -5 -15 -7 -26 -4 -11 3 -31 -2 -45 -11 -14 -9 -25 -14 -25 -11 0 4 -22 -6 -50 -21 -27 -15 -47 -31 -44 -35 3 -5 -3 -9 -14 -9 -20 0 -56 -33 -46 -42 3 -4 -8 -16 -25 -29 -17 -13 -31 -30 -31 -39 0 -9 -9 -27 -20 -39 -23 -28 -44 -87 -36 -106 3 -8 1 -17 -4 -20 -5 -3 -7 -19 -4 -34 4 -16 1 -32 -5 -35 -15 -10 -16 -1032 0 -1041 6 -4 8 -22 4 -45 -4 -22 -2 -41 4 -44 6 -4 8 -13 4 -21 -3 -9 0 -22 7 -30 6 -8 9 -19 5 -24 -3 -6 3 -27 14 -48 21 -42 81 -121 81 -107 0 5 7 -1 15 -13 20 -28 210 -124 230 -117 8 4 21 1 29 -5 15 -12 33 -14 145 -12 40 1 79 5 85 9 6 4 27 7 46 8 19 0 47 7 61 15 15 8 46 25 70 39 44 24 49 26 70 29 5 0 7 6 4 11 -3 6 -1 10 5 10 6 0 8 5 5 10 -3 6 -1 10 5 10 21 0 80 52 80 72 0 10 7 21 15 24 8 4 12 10 9 15 -3 5 7 33 21 61 27 54 28 61 41 295 7 112 7 112 -17 118 -13 3 -116 4 -229 3 l-205 -3 -2 -145 c-2 -174 -6 -229 -15 -224 -4 2 -9 -4 -12 -14 -14 -44 -106 -41 -115 3 -6 28 -17 1208 -11 1220 2 5 5 18 5 29 2 27 33 46 64 40 14 -3 35 -7 46 -8 31 -4 43 -78 44 -268 l1 -168 -42 0 -43 0 -3 -139 -4 -139 54 -5 c29 -3 150 -5 268 -4 l215 2 3 474 c1 332 -1 478 -9 487 -6 7 -8 17 -5 23 10 15 -40 21 -163 18 -108 -3 -115 -4 -122 -26 -5 -13 -5 -20 0 -16 5 3 4 -11 -1 -30 -6 -18 -17 -36 -24 -39 -15 -6 -74 43 -74 61 0 7 -6 13 -14 13 -7 0 -20 9 -27 21 -8 11 -21 21 -29 22 -8 2 -21 6 -27 10 -7 5 -13 5 -13 1 0 -3 -6 -1 -14 5 -7 6 -20 9 -29 5 -8 -3 -18 -1 -22 5 -8 13 -102 15 -109 2z"/>
<path d="M1174 3091 c-9 -9 -3 -32 6 -26 6 3 10 2 10 -4 0 -5 -4 -13 -10 -16 -14 -8 -14 -662 0 -670 14 -8 14 -442 0 -450 -14 -8 -14 -572 0 -580 6 -3 10 -29 10 -56 0 -35 -3 -48 -11 -43 -7 4 -10 1 -7 -7 4 -11 47 -14 234 -14 l229 0 2 745 3 745 80 3 c48 2 78 7 75 12 -4 6 6 10 20 10 15 0 24 -4 20 -10 -4 -6 5 -10 19 -10 14 0 26 5 26 10 0 6 6 10 14 10 10 0 16 20 21 73 7 78 1 264 -9 274 -6 7 -725 10 -732 4z"/>
<path d="M4468 2158 l2 -938 190 0 c115 0 191 4 195 10 3 5 15 10 26 10 12 0 17 -4 13 -11 -4 -7 -1 -10 7 -7 12 4 14 152 17 941 l2 936 -227 -2 -228 -2 3 -937z"/>
<path d="M5123 3093 l-23 -4 0 -913 c0 -716 3 -915 13 -925 10 -11 9 -12 -2 -6 -9 5 -12 3 -9 -6 4 -11 41 -14 185 -16 l180 -2 20 27 c16 23 72 190 78 232 1 8 4 22 8 30 18 42 57 168 57 186 0 11 3 24 7 28 4 4 8 13 8 19 2 35 18 86 26 81 5 -3 9 2 9 11 0 9 -5 13 -10 10 -6 -4 -1 11 11 32 12 21 21 50 21 66 0 15 3 27 7 27 11 0 31 46 31 70 0 11 3 20 8 20 4 0 7 -188 7 -417 l0 -418 174 -3 c119 -2 178 1 187 9 12 10 14 162 14 940 l0 929 -192 -2 -193 -3 -22 -46 c-13 -25 -24 -59 -26 -75 -2 -16 -8 -41 -14 -55 -20 -47 -41 -127 -36 -133 3 -3 1 -12 -5 -19 -7 -8 -9 -17 -5 -20 3 -4 1 -13 -6 -21 -15 -18 -53 -148 -40 -141 11 8 0 -22 -20 -55 -12 -17 -12 -22 -2 -16 9 6 7 0 -4 -17 -9 -15 -14 -30 -11 -36 3 -5 1 -22 -5 -38 -7 -15 -13 -32 -14 -38 -1 -5 -3 -14 -5 -20 -1 -5 -3 -14 -4 -20 -11 -59 -20 -85 -30 -85 -8 0 -11 111 -9 418 l1 417 -171 1 c-95 0 -182 -1 -194 -3z"/>
<path d="M9079 3081 c-38 -12 -79 -41 -79 -57 0 -8 -4 -14 -9 -14 -5 0 -14 -14 -20 -31 -13 -39 -14 -42 -2 -35 6 4 10 -106 11 -270 0 -189 -2 -274 -10 -269 -6 3 -10 -3 -10 -15 0 -12 5 -18 10 -15 7 4 10 -56 10 -174 0 -109 -4 -182 -10 -186 -13 -8 -13 -52 1 -60 6 -4 8 -13 6 -19 -7 -17 1 -28 51 -70 43 -35 46 -36 130 -36 l87 0 -1 -215 c0 -119 3 -218 7 -221 5 -2 6 -11 2 -19 -3 -9 0 -21 6 -29 7 -8 14 -29 16 -47 2 -17 8 -35 12 -38 4 -3 9 -12 11 -20 11 -53 127 -170 202 -204 25 -11 56 -25 69 -31 13 -6 33 -10 43 -8 11 2 26 -2 34 -9 19 -15 158 -17 176 -2 7 6 26 11 43 11 16 0 31 5 33 11 2 6 10 11 18 11 21 0 77 30 87 46 4 8 14 14 20 14 16 0 87 72 87 87 0 6 9 17 21 24 11 8 21 21 23 29 1 8 10 31 18 51 9 20 19 51 23 70 4 19 12 39 17 46 6 7 8 100 6 227 l-3 216 78 0 c92 0 132 15 165 63 l22 34 0 538 c0 296 -3 541 -8 544 -5 3 -11 14 -15 23 -3 9 -21 25 -39 35 -31 17 -77 18 -673 20 -352 1 -652 -2 -666 -6z m689 -334 c7 -6 11 -16 8 -23 -2 -6 1 -20 9 -31 10 -13 12 -37 8 -85 -6 -65 -5 -68 25 -93 41 -35 50 -76 23 -114 -26 -36 -78 -61 -117 -56 -77 10 -114 44 -114 106 0 29 7 43 31 64 30 25 31 28 25 83 -10 92 25 179 67 166 12 -3 28 -11 35 -17z m302 -943 c13 -32 13 -381 1 -388 -5 -3 -7 -15 -4 -26 3 -11 1 -20 -5 -20 -9 0 -27 -46 -24 -62 1 -4 -17 -26 -41 -48 -23 -23 -42 -46 -42 -53 0 -7 -6 -13 -12 -13 -7 -1 -17 -2 -21 -3 -5 0 -19 -11 -31 -22 -13 -12 -37 -24 -54 -25 -17 -2 -36 -9 -41 -14 -13 -13 -119 -13 -132 0 -5 5 -25 12 -43 14 -19 2 -38 11 -43 20 -5 9 -18 16 -28 16 -11 0 -24 9 -30 20 -6 11 -17 20 -25 20 -8 0 -15 6 -15 14 0 7 -16 30 -35 50 -35 37 -44 53 -25 41 6 -3 7 1 4 9 -3 9 -10 14 -14 11 -16 -10 -30 127 -30 297 0 96 3 178 7 181 3 4 156 7 340 7 l333 0 10 -26z"/>
</g>
<g id="layer116" fill="#fefefe" stroke="none">
<path d="M2424 3129 c-3 -6 -17 -8 -29 -5 -13 3 -27 1 -30 -4 -4 -6 -12 -9 -18 -8 -7 1 -46 -14 -88 -34 -97 -48 -187 -139 -219 -224 -11 -32 -24 -62 -28 -68 -3 -6 -5 -23 -3 -38 1 -15 -1 -33 -5 -40 -5 -7 -7 -49 -5 -94 2 -51 -1 -84 -8 -88 -16 -10 -15 -722 0 -732 8 -5 10 -36 6 -99 -3 -51 -2 -97 3 -101 4 -5 13 -31 19 -59 15 -62 73 -167 113 -206 42 -39 121 -82 193 -103 33 -10 67 -20 75 -23 19 -7 210 -6 230 1 8 3 35 10 59 16 107 28 201 92 257 175 32 48 68 126 65 142 -1 6 3 14 9 18 5 3 7 17 4 31 -3 13 -1 31 5 38 8 10 10 38 5 90 -5 52 -3 80 5 90 17 20 5 861 -13 899 -5 9 -6 26 -3 37 3 11 1 23 -4 26 -5 3 -9 12 -9 21 0 40 -74 165 -126 212 -66 60 -171 112 -238 117 -27 3 -54 8 -60 13 -16 12 -154 12 -162 0z m149 -318 c7 -7 12 -34 12 -61 0 -26 3 -52 8 -56 12 -12 9 -1072 -4 -1080 -6 -4 -8 -20 -4 -40 5 -29 2 -38 -21 -59 -33 -31 -65 -32 -99 -2 l-26 22 0 605 c0 333 1 610 2 615 1 6 1 14 0 19 -1 4 5 19 13 31 13 20 23 23 62 21 25 -2 51 -9 57 -15z"/>
<path d="M3595 3130 c-3 -4 -21 -11 -42 -15 -105 -19 -222 -116 -281 -233 -21 -42 -37 -83 -34 -90 2 -7 -1 -19 -7 -26 -6 -7 -9 -21 -5 -30 3 -9 3 -24 -1 -33 -9 -23 -9 -1038 0 -1052 3 -7 4 -25 0 -42 -4 -18 -2 -36 5 -44 7 -8 10 -21 7 -30 -4 -8 -2 -17 4 -21 6 -3 8 -13 5 -21 -3 -8 3 -26 14 -40 11 -14 20 -32 20 -39 0 -8 5 -14 10 -14 6 0 13 -7 16 -15 20 -52 153 -141 244 -165 25 -6 52 -13 60 -16 23 -8 223 -7 243 1 10 4 21 5 24 1 3 -3 11 -2 17 3 6 4 34 16 62 25 59 19 158 79 148 89 -4 4 -1 7 7 7 17 1 59 34 59 48 0 5 10 20 23 33 12 14 22 29 22 34 1 18 28 100 38 112 5 7 6 17 2 23 -4 6 -2 16 4 23 5 7 10 28 10 47 0 19 3 84 7 144 5 87 4 110 -7 117 -8 5 -109 8 -226 8 l-212 -1 -5 -151 c-8 -251 -10 -258 -62 -271 -30 -8 -81 12 -89 34 -5 11 -9 1225 -4 1225 0 0 2 11 3 24 4 34 29 49 78 46 46 -3 82 -36 73 -69 -2 -11 -1 -25 3 -30 5 -6 6 -86 4 -178 l-4 -168 -42 0 -41 0 -3 -139 -4 -139 54 -5 c29 -3 150 -5 268 -4 l215 2 3 474 c1 332 -1 478 -9 487 -6 7 -8 18 -4 24 5 7 -35 10 -131 8 l-137 -3 -20 -57 c-10 -32 -23 -58 -28 -58 -14 0 -69 62 -69 77 0 7 -5 13 -10 13 -6 0 -27 11 -48 24 -20 14 -50 28 -67 31 -16 4 -37 9 -45 12 -23 9 -110 11 -115 3z"/>
<path d="M4693 3092 l-223 -2 0 -935 0 -935 189 0 c116 0 192 4 196 10 3 6 17 10 31 10 14 0 27 6 29 12 3 7 4 425 3 928 l-3 915 -222 -3z"/>
<path d="M5198 3092 l-98 -3 0 -912 c0 -858 2 -913 18 -935 18 -23 21 -23 187 -20 l170 3 23 65 c12 36 25 72 29 80 3 8 7 22 8 30 3 22 42 146 53 167 5 10 14 38 20 63 6 25 16 59 23 75 7 17 13 35 14 40 6 46 19 96 33 125 8 19 17 45 18 57 5 45 40 133 53 133 3 0 6 -188 6 -417 l0 -418 174 -3 c119 -2 178 1 187 9 12 10 14 161 14 934 l0 923 -181 2 c-100 0 -186 2 -191 3 -11 2 -48 -54 -42 -64 6 -12 -51 -204 -67 -225 -5 -6 -6 -14 -2 -17 3 -4 1 -13 -5 -20 -7 -8 -10 -16 -7 -18 7 -8 -62 -257 -76 -275 -5 -6 -6 -13 -4 -16 3 -3 0 -18 -6 -34 -7 -16 -13 -33 -14 -39 -1 -5 -3 -14 -5 -20 -1 -5 -3 -14 -4 -20 -11 -59 -20 -85 -30 -85 -8 0 -11 111 -9 418 l1 418 -96 -1 c-53 0 -141 -1 -194 -3z"/>
<path d="M1190 3071 c0 -11 -4 -23 -10 -26 -6 -4 -10 -127 -10 -335 0 -208 4 -331 10 -335 14 -8 14 -442 0 -450 -13 -8 -14 -567 -1 -581 6 -5 11 -34 13 -64 l3 -55 204 -3 c180 -2 206 0 223 14 17 17 18 48 18 758 l-1 741 135 3 134 3 7 72 c3 39 4 117 2 172 l-5 100 -361 3 c-352 2 -361 2 -361 -17z"/>
<path d="M9080 3081 c-46 -14 -71 -35 -86 -71 -13 -29 -15 -112 -14 -509 0 -323 -3 -477 -10 -486 -8 -9 -8 -15 0 -20 5 -3 10 -22 10 -42 0 -29 8 -44 44 -79 l43 -44 89 0 89 0 -1 -213 c-1 -120 2 -217 8 -224 5 -6 8 -17 7 -25 -1 -7 1 -22 6 -33 45 -111 59 -141 71 -148 8 -4 14 -14 14 -21 0 -15 58 -71 83 -79 9 -4 17 -11 17 -17 0 -5 5 -10 10 -10 6 0 23 -8 38 -19 15 -10 50 -24 77 -31 28 -6 57 -14 65 -17 21 -6 172 -6 190 0 8 3 38 13 67 21 61 17 95 34 106 52 4 8 14 14 20 14 16 0 87 72 87 87 0 7 6 16 13 20 16 11 63 109 72 153 4 19 10 39 12 43 3 5 4 107 4 228 l-2 219 81 0 c96 0 135 15 168 64 l23 33 -1 526 c0 446 -3 531 -15 562 -9 20 -23 38 -33 41 -9 3 -26 11 -37 17 -23 14 -1272 21 -1315 8z m686 -335 c22 -21 33 -75 27 -130 -5 -50 -3 -58 25 -93 43 -55 49 -85 23 -121 -39 -55 -102 -70 -172 -43 -65 24 -78 99 -28 162 28 35 30 44 25 87 -11 81 27 169 67 156 12 -3 27 -11 33 -18z m312 -1116 c1 -107 0 -201 -4 -210 -3 -8 -8 -27 -9 -42 -3 -28 -51 -118 -63 -118 -4 0 -12 -10 -17 -22 -14 -32 -97 -85 -163 -104 -76 -22 -166 -14 -237 21 -30 14 -60 35 -65 46 -6 10 -17 19 -25 19 -8 0 -15 7 -15 15 0 8 -5 15 -10 15 -21 0 -68 92 -79 154 -12 68 -15 408 -4 419 4 4 160 6 347 5 l341 -3 3 -195z"/>
</g>


</svg>