<?xml version="1.0" encoding="UTF-8" standalone="no"?>
<!-- Generator: Adobe Illustrator 18.0.0, SVG Export Plug-In . SVG Version: 6.00 Build 0)  -->

<svg
   xmlns:dc="http://purl.org/dc/elements/1.1/"
   xmlns:cc="http://creativecommons.org/ns#"
   xmlns:rdf="http://www.w3.org/1999/02/22-rdf-syntax-ns#"
   xmlns:svg="http://www.w3.org/2000/svg"
   xmlns="http://www.w3.org/2000/svg"
   xmlns:sodipodi="http://sodipodi.sourceforge.net/DTD/sodipodi-0.dtd"
   xmlns:inkscape="http://www.inkscape.org/namespaces/inkscape"
   version="1.1"
   id="Capa_1"
   x="0px"
   y="0px"
   viewBox="0 0 154.616 154.616"
   style="enable-background:new 0 0 154.616 154.616;"
   xml:space="preserve"
   sodipodi:docname="wallet1.svg"
   inkscape:version="0.92.2 (5c3e80d, 2017-08-06)"><metadata
     id="metadata77"><rdf:RDF><cc:Work
         rdf:about=""><dc:format>image/svg+xml</dc:format><dc:type
           rdf:resource="http://purl.org/dc/dcmitype/StillImage" /></cc:Work></rdf:RDF></metadata><defs
     id="defs75" /><sodipodi:namedview
     pagecolor="#ffffff"
     bordercolor="#666666"
     borderopacity="1"
     objecttolerance="10"
     gridtolerance="10"
     guidetolerance="10"
     inkscape:pageopacity="0"
     inkscape:pageshadow="2"
     inkscape:window-width="1280"
     inkscape:window-height="961"
     id="namedview73"
     showgrid="false"
     inkscape:zoom="1.5263621"
     inkscape:cx="53.722508"
     inkscape:cy="77.307999"
     inkscape:window-x="-8"
     inkscape:window-y="-8"
     inkscape:window-maximized="1"
     inkscape:current-layer="layer1" /><g
     id="g40"
     transform="matrix(0.99,0,0,0.99,0.78250252,1.54616)"><g
       id="g16"><g
         id="g10"><rect
           x="24.632999"
           y="24.950001"
           transform="matrix(0.8525,-0.5228,0.5228,0.8525,-15.6373,49.6458)"
           style="fill:#faa522"
           width="111.019"
           height="55.157001"
           id="rect2" /><path
           style="fill:#e32a27"
           d="m 127.813,34.211 -9.729,-15.865 c -5.349,3.28 -12.577,1.222 -16.146,-4.597 L 35.697,54.371 c 3.568,5.819 2.125,13.195 -3.225,16.476 l 9.729,15.864 c 5.349,-3.28 12.577,-1.222 16.146,4.597 l 66.24,-40.622 c -3.567,-5.819 -2.123,-13.195 3.226,-16.475 z"
           id="path4"
           inkscape:connector-curvature="0" /><rect
           x="76.046997"
           y="10.441"
           transform="matrix(-0.8525,0.5228,-0.5228,-0.8525,212.1669,16.1661)"
           style="fill:#f58225"
           width="55.509998"
           height="55.157001"
           id="rect6" /><path
           style="fill:#c0221f"
           d="M 101.938,13.75 68.817,34.061 91.468,70.998 124.589,50.686 c -3.569,-5.819 -2.126,-13.195 3.224,-16.476 l -9.729,-15.864 c -5.349,3.28 -12.577,1.222 -16.146,-4.596 z"
           id="path8"
           inkscape:connector-curvature="0" /></g><circle
         style="fill:#ffffff"
         cx="80.141998"
         cy="52.528999"
         r="16.85"
         id="circle12" /><path
         style="fill:#f9cc79"
         d="M 94.507,43.72 C 89.642,35.787 79.268,33.3 71.334,38.165 l 17.617,28.728 c 7.933,-4.865 10.421,-15.24 5.556,-23.173 z"
         id="path14"
         inkscape:connector-curvature="0" /></g><g
       id="g32"><g
         id="g26"><rect
           x="21.128"
           y="39.59"
           transform="matrix(0.9414,-0.3374,0.3374,0.9414,-18.1667,29.7913)"
           style="fill:#faa522"
           width="111.019"
           height="55.157001"
           id="rect18" /><path
           style="fill:#e32a27"
           d="M 127.047,58.988 120.77,41.469 c -5.907,2.117 -12.563,-1.376 -14.865,-7.802 l -73.15,26.214 c 2.303,6.425 -0.619,13.351 -6.525,15.467 l 6.277,17.519 c 5.907,-2.117 12.563,1.376 14.865,7.802 l 73.149,-26.213 c -2.303,-6.426 0.619,-13.351 6.526,-15.468 z"
           id="path20"
           inkscape:connector-curvature="0" /><rect
           x="75.010002"
           y="30.226999"
           transform="matrix(-0.9414,0.3374,-0.3374,-0.9414,219.0072,77.5538)"
           style="fill:#f58225"
           width="55.509998"
           height="55.157001"
           id="rect22" /><path
           style="fill:#c0221f"
           d="M 105.904,33.667 69.329,46.774 83.946,87.563 120.521,74.456 c -2.303,-6.426 0.618,-13.351 6.525,-15.468 l -6.277,-17.519 c -5.907,2.117 -12.562,-1.376 -14.865,-7.802 z"
           id="path24"
           inkscape:connector-curvature="0" /></g><circle
         style="fill:#ffffff"
         cx="76.637001"
         cy="67.168999"
         r="16.85"
         id="circle28" /><path
         style="fill:#f9cc79"
         d="M 92.5,61.484 C 89.36,52.724 79.714,48.167 70.954,51.306 L 82.322,83.03 C 91.083,79.891 95.639,70.245 92.5,61.484 Z"
         id="path30"
         inkscape:connector-curvature="0" /></g><path
       style="fill:#4c70b7"
       d="M 131.515,75.436 H 22.781 c -5.548,0 -10.046,4.498 -10.046,10.046 v 59.088 c 0,5.548 4.498,10.046 10.046,10.046 h 108.734 c 5.548,0 10.046,-4.498 10.046,-10.046 V 85.482 c 0,-5.548 -4.498,-10.046 -10.046,-10.046 z"
       id="path34"
       inkscape:connector-curvature="0" /><path
       style="fill:#3a568e"
       d="m 17.355,77.048 c -2.773,1.788 -4.62,4.889 -4.62,8.434 v 59.088 c 0,5.548 4.498,10.046 10.046,10.046 h 108.734 c 3.499,0 6.574,-1.794 8.373,-4.507 C 76.631,135.067 24.171,86.78 17.355,77.048 Z"
       id="path36"
       inkscape:connector-curvature="0" /><path
       style="fill:#ffffff"
       d="m 132,87.899 h -30.194 c -1.897,0 -3.436,1.537 -3.436,3.434 0,1.896 1.538,3.434 3.436,3.434 H 132 c 1.896,0 3.435,-1.538 3.435,-3.434 -0.001,-1.897 -1.539,-3.434 -3.435,-3.434 z"
       id="path38"
       inkscape:connector-curvature="0" /></g><g
     id="g42" /><g
     id="g44" /><g
     id="g46" /><g
     id="g48" /><g
     id="g50" /><g
     id="g52" /><g
     id="g54" /><g
     id="g56" /><g
     id="g58" /><g
     id="g60" /><g
     id="g62" /><g
     id="g64" /><g
     id="g66" /><g
     id="g68" /><g
     id="g70" /><g
     inkscape:groupmode="layer"
     id="layer1"
     inkscape:label="Layer 1"><text
       xml:space="preserve"
       style="font-style:normal;font-variant:normal;font-weight:bold;font-stretch:normal;font-size:21.33333397px;line-height:1.25;font-family:Calibri;-inkscape-font-specification:'Calibri, Bold';font-variant-ligatures:normal;font-variant-caps:normal;font-variant-numeric:normal;font-feature-settings:normal;text-align:start;letter-spacing:0px;word-spacing:0px;writing-mode:lr-tb;text-anchor:start;fill:#ffffff;fill-opacity:1;stroke:none"
       x="22.895796"
       y="127.48302"
       id="text887"><tspan
         sodipodi:role="line"
         id="tspan885"
         x="22.895796"
         y="127.48302"
         style="font-style:normal;font-variant:normal;font-weight:bold;font-stretch:normal;font-size:21.33333397px;font-family:Calibri;-inkscape-font-specification:'Calibri, Bold';font-variant-ligatures:normal;font-variant-caps:normal;font-variant-numeric:normal;font-feature-settings:normal;text-align:start;writing-mode:lr-tb;text-anchor:start;fill:#ffffff">Mon budget</tspan></text>
</g></svg>