<?xml version="1.0" encoding="iso-8859-1"?>
<!-- Generator: Adobe Illustrator 19.0.0, SVG Export Plug-In . SVG Version: 6.00 Build 0)  -->
<svg version="1.1" id="Layer_1" xmlns="http://www.w3.org/2000/svg" xmlns:xlink="http://www.w3.org/1999/xlink" x="50px" y="50px"
	 viewBox="0 0 459.334 459.334" style="enable-background:new 0 0 459.334 459.334;" xml:space="preserve">
<g>
	<g>
		<g>
			<path d="M175.216,404.514c-0.001,0.12-0.009,0.239-0.009,0.359c0,30.078,24.383,54.461,54.461,54.461
				s54.461-24.383,54.461-54.461c0-0.12-0.008-0.239-0.009-0.359H175.216z"/>
			<path d="M403.549,336.438l-49.015-72.002c0-22.041,0-75.898,0-89.83c0-60.581-43.144-111.079-100.381-122.459V24.485
				C254.152,10.963,243.19,0,229.667,0s-24.485,10.963-24.485,24.485v27.663c-57.237,11.381-100.381,61.879-100.381,122.459
				c0,23.716,0,76.084,0,89.83l-49.015,72.002c-5.163,7.584-5.709,17.401-1.419,25.511c4.29,8.11,12.712,13.182,21.887,13.182
				H383.08c9.175,0,17.597-5.073,21.887-13.182C409.258,353.839,408.711,344.022,403.549,336.438z"/>
		</g>
	</g>
</g>


<path opacity="0.3" fill="#FFFFFF" enable-background="new" d="M28.018,81.221c0,1.975-1.6,3.573-3.574,3.573l0,0
    c-1.974,0-3.574-1.601-3.574-3.573l0,0c0-1.975,1.601-3.574,3.574-3.574l0,0C26.418,77.646,28.018,79.246,28.018,81.221
    L28.018,81.221z">

    <animateTransform attributeName="transform"
                      attributeType="XML"
                      type="translate"
                      values="0 50;0 -50;"
                      dur="2.8s"
                      repeatCount="indefinite"/>

</path> 
<path opacity="0.3" fill="#FFFFFF" enable-background="new    " d="M39.018,51.221c0,1.975-1.6,3.573-3.574,3.573l0,0
    c-1.974,0-3.574-1.601-3.574-3.573l0,0c0-1.975,1.601-3.575,3.574-3.575l0,0C37.418,47.646,39.018,49.246,39.018,51.221
    L39.018,51.221z">

<animateTransform attributeName="transform"
                      attributeType="XML"
                      type="translate"
                      values="0 50;0 -50;"
                      dur="4s"
                      repeatCount="indefinite"/>

</path> 

<path opacity="0.3" fill="#FFFFFF" enable-background="new    " d="M65.018,81.221c0,1.975-1.6,3.573-3.574,3.573l0,0
    c-1.973,0-3.573-1.601-3.573-3.573l0,0c0-1.975,1.601-3.574,3.573-3.574l0,0C63.418,77.646,65.018,79.246,65.018,81.221
    L65.018,81.221z">

<animateTransform attributeName="transform"
                      attributeType="XML"
                      type="translate"
                      values="2 50;2 -50;"
                      dur="2.2s"
                      repeatCount="indefinite"/>

</path> 

<path opacity="0.3" fill="#FFFFFF" enable-background="new    " d="M58.018,59.221c0,1.975-1.6,3.573-3.574,3.573l0,0
    c-1.973,0-3.573-1.601-3.573-3.573l0,0c0-1.975,1.601-3.574,3.573-3.574l0,0C56.418,55.646,58.018,57.246,58.018,59.221
    L58.018,59.221z">

<animateTransform attributeName="transform"
                      attributeType="XML"
                      type="translate"
                      values="0 50;0 -50;"
                      dur="2.5s"
                      repeatCount="indefinite"/>

</path>     
<path opacity="0.3" fill="#FFFFFF" enable-background="new    " d="M23.165,61.221c0,0.949-0.771,1.719-1.721,1.719l0,0
    c-0.949,0-1.72-0.77-1.72-1.719l0,0c0-0.951,0.771-1.721,1.72-1.721l0,0C22.394,59.5,23.165,60.27,23.165,61.221L23.165,61.221z">
    <animateTransform attributeName="transform"
                      attributeType="XML"
                      type="translate"
                      values="0 50;0 -50;"
                      dur="3s"
                      repeatCount="indefinite"/>

</path> 
<path opacity="0.3" fill="#FFFFFF" enable-background="new    " d="M45.165,71.221c0,2.055-1.667,3.719-3.721,3.719l0,0
    c-2.053,0-3.719-1.664-3.719-3.719l0,0c0-2.056,1.667-3.72,3.719-3.72l0,0C43.498,67.501,45.165,69.165,45.165,71.221L45.165,71.221
    z">
    <animateTransform attributeName="transform"
                      attributeType="XML"
                      type="translate"
                      values="0 50;0 -50;"
                      dur="4s"
                      repeatCount="indefinite"/>

</path> 
<path opacity="0.3" fill="#FFFFFF" enable-background="new    " d="M43.877,86.221c0,1.344-1.09,2.432-2.434,2.432l0,0
    c-1.343,0-2.433-1.088-2.433-2.432l0,0c0-1.345,1.09-2.434,2.433-2.434l0,0C42.788,83.787,43.877,84.876,43.877,86.221
    L43.877,86.221z">
    <animateTransform attributeName="transform"
                      attributeType="XML"
                      type="translate"
                      values="0 50;0 -50;"
                      dur="3s"
                      repeatCount="indefinite"/>

</path> 
<path opacity="0.3" fill="#FFFFFF" enable-background="new    " d="M63.999,42.22c0,1.411-1.146,2.554-2.556,2.554l0,0
    c-1.408,0-2.553-1.143-2.553-2.554l0,0c0-1.411,1.145-2.554,2.553-2.554l0,0C62.854,39.666,63.999,40.809,63.999,42.22L63.999,42.22
    z">
    <animateTransform attributeName="transform"
                      attributeType="XML"
                      type="translate"
                      values="0 50;0 -50;"
                      dur="3s"
                      repeatCount="indefinite"/>

</path> 
<path opacity="0.3" fill="#FFFFFF" enable-background="new    " d="M23.109,46.601c0,0.709-0.575,1.283-1.285,1.283l0,0
    c-0.708,0-1.283-0.573-1.283-1.283l0,0c0-0.709,0.575-1.284,1.283-1.284l0,0C22.534,45.317,23.109,45.891,23.109,46.601
    L23.109,46.601z">
    <animateTransform attributeName="transform"
                      attributeType="XML"
                      type="translate"
                      values="0 50;0 -50;"
                      dur="2s"
                      repeatCount="indefinite"/>

</path> 
<path opacity="0.3" fill="#FFFFFF" enable-background="new    " d="M53.075,49.444c0,0.709-0.574,1.283-1.284,1.283l0,0
    c-0.708,0-1.283-0.573-1.283-1.283l0,0c0-0.709,0.575-1.283,1.283-1.283l0,0C52.5,48.161,53.075,48.734,53.075,49.444L53.075,49.444
    z">
    <animateTransform attributeName="transform"
                      attributeType="XML"
                      type="translate"
                      values="0 50;0 -50;"
                      dur="2.5s"
                      repeatCount="indefinite"/>

</path> 
<path opacity="0.3" fill="#FFFFFF" enable-background="new    " d="M53.497,74.723c0,0.711-0.575,1.283-1.284,1.283l0,0
    c-0.708,0-1.283-0.572-1.283-1.283l0,0c0-0.709,0.575-1.281,1.283-1.281l0,0C52.921,73.439,53.497,74.014,53.497,74.723
    L53.497,74.723z">
    <animateTransform attributeName="transform"
                      attributeType="XML"
                      type="translate"
                      values="0 50;0 -50;"
                      dur="2.2s"
                      repeatCount="indefinite"/>

</path> 
<path opacity="0.3" fill="#FFFFFF" enable-background="new    " d="M26.061,70.771c0,0.709-0.575,1.283-1.284,1.283l0,0
    c-0.708,0-1.283-0.574-1.283-1.283l0,0c0-0.709,0.575-1.283,1.283-1.283l0,0C25.486,69.486,26.061,70.062,26.061,70.771
    L26.061,70.771z">
    <animateTransform attributeName="transform"
                      attributeType="XML"
                      type="translate"
                      values="0 50;0 -50;"
                      dur="2s"
                      repeatCount="indefinite"/>

</path> 
<path opacity="0.3" fill="#FFFFFF" enable-background="new    " d="M65.877,68.221c0,1.344-1.09,2.432-2.434,2.432l0,0
    c-1.344,0-2.434-1.088-2.434-2.432l0,0c0-1.345,1.09-2.434,2.434-2.434l0,0C64.788,65.787,65.877,66.876,65.877,68.221
    L65.877,68.221z">
    <animateTransform attributeName="transform"
                      attributeType="XML"
                      type="translate"
                      values="-10 50;-10 -50;"
                      dur="5s"
                      repeatCount="indefinite"/>

</path> 
</svg>
