<!DOCTYPE svg PUBLIC "-//W3C//DTD SVG 20010904//EN" "http://www.w3.org/TR/2001/REC-SVG-20010904/DTD/svg10.dtd">
<svg version="1.0" xmlns="http://www.w3.org/2000/svg" width="200px" height="200px" viewBox="0 0 2000 2000" preserveAspectRatio="xMidYMid meet">
<g id="layer101" fill="#000000" stroke="none">

	<path d="M355.23 448c14.876 73.042 79.376 128 156.792 128 77.418 0 141.916-54.958 156.752-128h64c-15.668 108.25-108.168 192-220.752 192-112.542 0-205.082-83.75-220.75-192h63.958zM512.022 704c17.666 0 32 14.334 32 32v64c0 17.666-14.334 32-32 32-17.664 0-32-14.334-32-32v-64c0-17.666 14.336-32 32-32zM806.146 710.166c-12.498 12.5-32.748 12.5-45.25 0l-45.25-45.25c-12.498-12.5-12.498-32.75 0-45.25 12.502-12.5 32.752-12.5 45.25 0l45.25 45.25c12.5 12.5 12.5 32.75 0 45.25zM308.354 664.916l-45.25 45.25c-12.498 12.5-32.746 12.5-45.25 0-12.498-12.5-12.498-32.75 0-45.25l45.25-45.25c12.504-12.5 32.752-12.5 45.25 0 12.504 12.5 12.504 32.75 0 45.25zM704.022 384h-384c-17.664 0-32-14.334-32-32s14.336-32 32-32h384c17.666 0 32 14.334 32 32s-14.334 32-32 32zM640.022 256h-256c-17.664 0-32-14.334-32-32s14.336-32 32-32h256c17.666 0 32 14.334 32 32s-14.334 32-32 32z"/>
 </g>

</svg>